<svg version="1.1" id="Layer_1" xmlns="http://www.w3.org/2000/svg" xmlns:xlink="http://www.w3.org/1999/xlink" x="0px" y="0px"
	 width="100%" viewBox="0 0 665 375" enable-background="new 0 0 665 375" xml:space="preserve">
<path fill="#000000" opacity="1.000000" stroke="none" 
	d="
M400.000000,376.000000 
	C266.698578,376.000000 133.897156,376.000000 1.047861,376.000000 
	C1.047861,251.061951 1.047861,126.123878 1.047861,1.092900 
	C222.551453,1.092900 444.102966,1.092900 665.827271,1.092900 
	C665.827271,125.999809 665.827271,250.999878 665.827271,376.000000 
	C577.457153,376.000000 488.978577,376.000000 400.000000,376.000000 
M311.922211,166.414246 
	C311.721924,166.132828 311.452362,165.958633 310.920471,165.433838 
	C310.721588,165.150879 310.455383,164.963699 309.774445,164.289932 
	C307.231567,162.140717 304.688721,159.991516 301.839294,157.251678 
	C300.570618,156.504730 299.301971,155.757782 298.037598,154.959213 
	C298.037598,154.959213 297.986145,154.965118 297.764832,154.326859 
	C296.540924,152.513016 295.316986,150.699173 293.965912,148.064377 
	C293.588470,144.039627 293.211060,140.014893 292.963867,135.209259 
	C295.315033,130.826996 297.666229,126.444740 300.061401,122.058456 
	C300.061401,122.058456 300.057404,122.014496 300.747192,121.926170 
	C303.606689,119.628738 306.514893,117.388641 309.309021,115.014259 
	C311.260559,113.355858 311.830933,111.580688 309.060699,109.920784 
	C309.060699,109.920784 308.906921,109.912849 308.830444,109.478462 
	C308.664429,109.199425 308.419037,109.058746 308.106506,108.921745 
	C308.106506,108.921745 307.972046,108.907417 307.910492,108.464714 
	C307.756500,108.179565 307.518188,108.021698 306.918488,107.330856 
	C302.626556,104.212349 298.334595,101.093842 294.013916,97.984779 
	C294.013916,97.984779 294.020508,97.957626 293.803986,97.316467 
	C290.871765,95.211388 287.939514,93.106308 285.002441,90.997421 
	C285.002441,90.997421 284.998627,90.992058 284.871429,90.493317 
	C284.586884,90.322281 284.302338,90.151245 283.867706,89.503334 
	C283.675903,89.206230 283.406891,89.021667 282.918091,88.406174 
	C282.587402,88.332909 282.256744,88.259651 281.288177,88.097572 
	C280.862671,88.137817 280.437134,88.178062 279.239197,88.052475 
	C277.794037,88.355690 276.348877,88.658905 274.291534,89.214584 
	C272.510040,91.411194 270.728546,93.607803 268.164520,95.878174 
	C267.158539,98.613716 266.152557,101.349251 265.013947,104.505775 
	C265.013947,104.505775 265.155731,104.923759 265.099274,105.808838 
	C265.124146,107.875389 265.148987,109.941940 265.039917,112.516342 
	C265.090546,112.683922 265.141205,112.851509 265.137970,113.845421 
	C265.089050,115.222527 265.040131,116.599625 264.313538,118.357613 
	C264.257172,119.882538 264.200775,121.407463 264.021362,123.871346 
	C264.046783,143.918579 264.072205,163.965805 264.105469,184.535339 
	C264.392822,184.708252 264.680206,184.881180 265.069794,185.684998 
	C265.116455,186.108093 265.163086,186.531204 265.048798,187.703781 
	C265.834717,189.770676 266.228516,192.121597 267.480957,193.850525 
	C271.056000,198.785736 275.441528,202.710007 282.683136,203.141464 
	C283.446533,203.389633 284.230530,203.903061 284.970154,203.845520 
	C293.763031,203.161484 300.297272,198.367233 306.106659,192.138412 
	C306.106659,192.138412 306.129761,192.039032 306.778656,192.074509 
	C307.566315,191.425476 308.353973,190.776443 309.712585,189.768311 
	C312.535950,186.858063 315.359344,183.947800 318.912720,181.036148 
	C323.294128,179.216507 324.234436,176.598114 321.131714,173.638077 
	C318.775787,171.390518 315.814392,169.777588 312.957184,167.405212 
	C312.682739,167.222031 312.408264,167.038849 311.922211,166.414246 
M417.000885,207.994080 
	C417.000885,207.994080 417.063080,207.976929 416.928436,207.447128 
	C416.623779,207.269012 416.319122,207.090912 415.980072,206.968857 
	C415.980072,206.968857 416.037567,206.943863 415.907288,206.458740 
	C415.626526,206.302475 415.345734,206.146210 415.043884,205.949280 
	C415.043884,205.949280 415.001740,205.931259 414.741211,205.289261 
	C412.138336,203.169998 409.535431,201.050720 406.841003,198.483521 
	C406.667114,198.194916 406.411652,198.049759 406.082733,197.938797 
	C406.082733,197.938797 405.973602,197.929077 405.882782,197.443558 
	C405.677429,197.092896 405.391357,197.005081 404.550995,197.028488 
	C404.550995,197.028488 404.061584,196.940445 403.799835,196.327255 
	C401.874512,194.880417 399.949188,193.433578 397.849884,191.494064 
	C397.564636,191.305832 397.279358,191.117584 396.872467,190.457214 
	C396.681335,190.158371 396.408691,189.998108 396.066833,189.930206 
	C396.066833,189.930206 396.020233,189.919357 395.822784,189.279526 
	C394.230225,188.194382 392.637695,187.109222 391.056152,185.967316 
	C391.056152,185.967316 390.999786,185.953598 390.797363,185.290833 
	C389.202942,182.865311 386.816864,180.633652 386.166229,177.977005 
	C384.393494,170.738312 380.598846,164.757462 375.284698,159.973663 
	C366.812805,152.347260 357.827332,145.291428 349.055176,137.947144 
	C349.055176,137.947144 349.009949,137.935654 348.851166,137.343658 
	C347.923462,136.561172 346.995728,135.778702 346.078918,134.940048 
	C346.078918,134.940048 346.021973,134.934372 345.940430,134.416901 
	C345.639954,134.334366 345.339508,134.251831 344.449860,133.985504 
	C343.968445,133.612091 343.487000,133.238678 342.909973,132.422623 
	C342.740082,132.135040 342.488068,131.992813 341.869141,131.362442 
	C338.469818,128.650497 335.213806,125.726311 331.620972,123.301018 
	C329.214905,121.676880 326.313416,120.531013 323.396179,124.155861 
	C321.670227,125.820389 319.944275,127.484924 317.869354,129.655914 
	C316.717377,130.856705 315.565399,132.057510 314.073242,133.554779 
	C314.073242,133.554779 313.925140,133.981049 313.331329,134.401917 
	C309.947601,140.888809 309.988586,147.578781 314.392639,153.211517 
	C317.872223,157.661850 322.773651,161.000473 327.641510,165.117981 
	C328.924957,166.688416 330.000244,168.508713 331.530090,169.783417 
	C336.555817,173.970947 341.746429,177.960526 346.869354,182.093857 
	C346.869354,182.093857 346.936981,182.099258 346.946838,182.706650 
	C347.279083,183.097504 347.611328,183.488358 348.603882,184.155960 
	C350.323334,187.762909 352.042786,191.369858 352.954376,194.988220 
	C351.193298,194.633713 349.414856,194.348343 347.674500,193.911346 
	C342.976379,192.731720 338.322601,191.856415 333.295441,195.044373 
	C332.161255,195.673523 331.027100,196.302673 329.286499,197.061432 
	C328.539001,197.397461 327.791473,197.733490 326.314575,197.904999 
	C325.914124,198.603989 325.513641,199.302979 325.009949,199.999359 
	C325.009949,199.999359 325.007507,200.102570 324.404022,200.306381 
	C323.298615,201.204590 322.193207,202.102798 320.536346,203.242523 
	C320.025635,203.847641 319.514893,204.452759 318.293304,205.102493 
	C316.163910,206.703964 314.034485,208.305435 311.208801,210.009827 
	C309.074158,211.608246 306.939514,213.206665 304.362701,215.025497 
	C304.082123,215.230026 303.907990,215.502563 303.143829,215.999878 
	C302.087128,216.990707 301.030457,217.981537 299.517487,219.161224 
	C299.233459,219.355026 299.041443,219.616440 298.230133,220.056351 
	C294.801270,222.012375 291.372437,223.968384 287.073456,225.964417 
	C283.045593,225.323563 279.017731,224.682693 274.781128,223.571075 
	C274.514618,223.360535 274.248108,223.149994 273.872009,222.478256 
	C273.669159,222.151764 273.391632,222.065674 272.458252,222.008865 
	C271.944214,221.673721 271.430176,221.338593 270.802643,220.537155 
	C270.620483,220.236694 270.353790,220.081512 269.999847,220.005234 
	C269.999847,220.005234 269.934509,220.017242 269.693695,219.413208 
	C268.458374,218.628616 267.223053,217.844009 265.999237,216.997009 
	C265.999237,216.997009 265.935852,217.000275 265.792389,216.549713 
	C265.610657,216.262375 265.350769,216.100494 265.012329,215.996490 
	C265.012329,215.996490 264.944794,216.000214 264.873383,215.309387 
	C261.931061,212.834869 258.988739,210.360352 255.778091,207.262268 
	C254.491959,204.830963 253.205826,202.399658 251.954178,199.036453 
	C251.927551,194.284531 252.172897,189.507950 251.745193,184.792404 
	C251.565247,182.808304 249.963531,180.953156 249.021439,178.983917 
	C249.021439,178.983917 248.964523,178.987503 248.771347,178.451599 
	C248.202057,177.970551 247.632767,177.489487 247.062180,176.934753 
	C247.062180,176.934753 246.988510,176.934692 246.743423,176.390015 
	C245.849350,175.628876 244.955276,174.867722 243.419540,173.926086 
	C241.941330,174.021072 240.463104,174.116058 238.245010,174.091003 
	C237.500961,174.141663 236.756927,174.192322 235.256546,174.125748 
	C233.177979,175.076019 231.099411,176.026291 228.299118,177.097382 
	C218.781906,182.717056 216.637131,196.187210 224.275543,204.727417 
	C225.922119,206.602783 227.568695,208.478149 229.614822,210.937271 
	C240.390747,220.667984 251.166672,230.398697 262.226837,240.744370 
	C265.462891,243.518387 268.698944,246.292419 272.099701,249.536133 
	C272.292816,249.829437 272.560120,250.017197 273.132416,250.703781 
	C274.239380,251.725800 275.346344,252.747818 276.819824,254.240234 
	C277.541290,254.463242 278.262787,254.686264 279.230804,255.455933 
	C279.837219,255.960297 280.443634,256.464661 281.272797,257.518463 
	C281.825378,257.683807 282.377930,257.849121 283.262207,258.654449 
	C285.150604,259.762512 286.967712,261.658142 288.940247,261.836670 
	C295.940674,262.470276 302.994141,262.518158 310.784882,262.827667 
	C312.837036,262.079590 315.137238,261.700012 316.896057,260.516144 
	C322.785614,256.551849 328.481720,252.300140 334.963776,248.130539 
	C338.959747,244.966217 342.878906,241.698303 346.971466,238.664276 
	C351.882568,235.023407 356.941498,231.581848 361.983307,228.962646 
	C362.210724,232.637756 362.438141,236.312881 363.021423,240.784058 
	C362.935364,245.573227 362.821808,250.256836 357.908630,253.166763 
	C355.613007,254.526382 353.619934,256.421265 351.575012,258.173065 
	C349.386017,260.048248 347.297363,262.040558 344.648224,264.134186 
	C344.409576,264.393829 344.170929,264.653442 343.300201,265.165436 
	C341.204865,266.766815 339.109528,268.368164 336.967804,269.959381 
	C336.967804,269.959381 336.966797,270.006836 336.245392,270.046417 
	C333.374481,271.095184 332.709900,272.725189 333.806763,275.796753 
	C335.579956,280.762268 339.760040,282.330292 344.272308,284.724609 
	C346.835388,286.186249 349.398499,287.647858 352.259888,289.654694 
	C353.183258,290.043640 354.106628,290.432587 355.673248,290.949005 
	C356.463593,291.234528 357.253937,291.520050 358.891602,291.952759 
	C362.260529,291.575989 365.629486,291.199219 369.768219,290.953156 
	C371.492249,290.527313 373.495972,290.526398 374.894501,289.605957 
	C383.355408,284.037598 391.776642,278.396515 400.003815,272.490936 
	C403.927216,269.674652 407.393890,266.222107 410.998505,263.006897 
	C410.998505,263.006897 411.049866,263.076965 411.765350,263.011719 
	C413.867737,261.031769 415.970123,259.051819 418.000793,257.004456 
	C418.000793,257.004456 418.078461,257.061523 418.737640,256.877747 
	C420.184082,254.607422 421.630524,252.337097 423.000000,250.001190 
	C423.000000,250.001190 423.078064,250.062363 423.765106,249.824539 
	C428.221069,242.835175 428.920593,235.088898 427.471588,227.261108 
	C426.749023,223.357559 424.562592,219.724991 422.999603,215.998337 
	C422.999603,215.998337 423.040619,215.979141 422.902527,215.474976 
	C422.613068,215.303055 422.323639,215.131149 421.925964,214.498032 
	C421.925964,214.498032 421.802856,214.040588 421.914490,213.504990 
	C421.619568,213.322937 421.324646,213.140884 421.001404,213.000595 
	C421.001404,213.000595 421.037933,212.962372 420.967438,212.300308 
	C419.996216,211.188812 419.024963,210.077332 418.004883,208.996384 
	C418.004883,208.996384 418.045990,208.970535 417.921417,208.450180 
	C417.622803,208.278275 417.324188,208.106369 417.000885,207.994080 
M264.965515,264.977478 
	C264.965515,264.977478 264.853729,265.045624 265.185028,265.582916 
	C265.771027,265.779694 266.356995,265.976471 267.241058,266.763733 
	C270.769226,269.332794 274.288605,271.914062 277.827240,274.468658 
	C288.103821,281.887482 299.177734,280.570251 310.154602,276.849182 
	C314.499908,275.376129 318.481964,272.623413 322.366669,270.055847 
	C326.574890,267.274445 330.615509,264.192749 334.459686,260.924957 
	C336.731018,258.994202 338.480103,256.449097 340.464050,254.180283 
	C340.067719,253.792480 339.671417,253.404678 339.275085,253.016891 
	C337.889954,253.774521 336.358978,254.349701 335.144440,255.320709 
	C329.245087,260.037231 323.474060,264.914215 317.576996,269.633636 
	C304.808655,279.852142 285.216309,278.694153 272.726135,267.122955 
	C269.970490,264.570038 267.003998,262.244720 263.812988,259.231598 
	C248.841125,245.368134 233.844131,231.534027 218.220749,218.432022 
	C217.650040,219.068726 217.079330,219.705444 216.508606,220.342163 
	C231.999756,234.604721 247.490906,248.867264 263.071564,263.571259 
	C263.235352,263.856476 263.481323,264.010376 264.041718,264.566315 
	C264.372406,264.740601 264.703125,264.914886 264.965515,264.977478 
M410.991211,187.014633 
	C410.991211,187.014633 410.964722,187.054108 411.170776,187.702209 
	C413.428101,188.599350 415.685455,189.496506 418.737946,189.896088 
	C418.851562,171.014679 418.973541,152.133301 419.031494,133.251709 
	C419.032959,132.771332 418.330658,132.288788 417.955750,131.042007 
	C416.299896,122.873161 411.532104,116.519615 405.516510,111.214088 
	C399.929840,106.286789 393.863586,101.882927 387.844788,97.471954 
	C382.529938,93.576904 377.956238,88.393349 370.505096,87.073799 
	C370.505096,87.073799 370.027374,87.193680 369.551849,87.045174 
	C369.551849,87.045174 369.061310,86.958168 368.569824,86.254524 
	C362.723816,86.830620 356.877777,87.406715 350.534210,88.095604 
	C350.369751,88.138870 350.205261,88.182144 349.233856,88.324104 
	C348.830566,89.835823 348.094177,91.344055 348.078339,92.859840 
	C347.979187,102.335487 348.753235,111.885780 347.792725,121.263306 
	C347.177826,127.266266 350.299438,130.183182 353.870483,133.156876 
	C357.466736,136.151520 361.671356,138.401901 365.454468,141.188675 
	C372.984100,146.735275 380.407471,152.426102 388.025818,158.758041 
	C390.015778,161.519699 392.005768,164.281357 394.091064,167.475784 
	C394.091064,167.475784 394.187653,167.908264 393.983734,168.654099 
	C396.557404,177.627380 403.155304,182.886795 410.991211,187.014633 
z"/>
<path fill="#2BC1C1" opacity="1.000000" stroke="none" 
	d="
M421.802856,214.040588 
	C421.802856,214.040588 421.925964,214.498032 422.114166,214.929184 
	C422.509003,215.613663 422.755096,215.819931 423.040619,215.979141 
	C423.040619,215.979141 422.999603,215.998337 423.006226,216.384552 
	C424.009125,223.064041 425.657623,229.343765 425.788696,235.655014 
	C425.888031,240.436630 424.052551,245.258438 423.078064,250.062363 
	C423.078064,250.062363 423.000000,250.001190 422.700012,250.107040 
	C420.959473,252.495758 419.518982,254.778641 418.078461,257.061523 
	C418.078461,257.061523 418.000793,257.004456 417.684357,257.087189 
	C415.261902,259.138916 413.155884,261.107941 411.049866,263.076965 
	C411.049866,263.076965 410.998505,263.006897 410.666687,263.044678 
	C408.315033,264.150391 406.176819,265.043732 404.297119,266.318298 
	C398.157532,270.481384 392.112213,274.783386 385.734558,278.914917 
	C384.295654,279.866760 383.152771,280.935577 381.823212,282.251160 
	C380.758881,282.983307 379.881195,283.468689 379.014160,283.569214 
	C379.510925,280.780121 379.997070,278.375916 380.700592,274.896881 
	C378.227478,276.609253 376.825073,277.580231 374.438568,279.232635 
	C374.438568,276.302979 374.063904,274.212769 374.517273,272.320953 
	C375.435852,268.488007 376.802948,264.762573 377.992218,260.996033 
	C377.999298,260.999298 377.988190,260.985779 378.294556,260.874390 
	C379.418610,258.850830 380.236237,256.938629 381.025177,254.778809 
	C380.996460,254.531189 380.932404,254.036743 381.095215,253.853119 
	C381.472351,253.424301 381.702789,253.195297 382.289978,252.843445 
	C383.427063,250.649445 384.792480,248.631104 384.927582,246.533508 
	C385.804504,232.918762 388.368530,220.227859 400.480255,211.532059 
	C401.858704,210.542389 401.915527,207.650131 402.476501,205.610168 
	C402.751251,204.611160 402.776337,203.543518 402.815918,203.246307 
	C407.192810,204.210678 411.097290,205.070969 415.001740,205.931259 
	C415.001740,205.931259 415.043884,205.949280 415.194366,206.149445 
	C415.550018,206.577698 415.780914,206.775772 416.037567,206.943863 
	C416.037567,206.943863 415.980072,206.968857 416.138062,207.150055 
	C416.551727,207.546494 416.807404,207.761719 417.063080,207.976929 
	C417.063080,207.976929 417.000885,207.994080 417.142944,208.174072 
	C417.492065,208.617081 417.745728,208.822571 418.045990,208.970535 
	C418.045990,208.970535 418.004883,208.996384 418.036804,209.334091 
	C419.058472,210.768661 420.048218,211.865509 421.037933,212.962372 
	C421.037933,212.962372 421.001404,213.000595 421.111572,213.181580 
	C421.384125,213.615433 421.577820,213.841446 421.802856,214.040588 
z"/>
<path fill="#30ABBA" opacity="1.000000" stroke="none" 
	d="
M387.874756,158.057343 
	C380.407471,152.426102 372.984100,146.735275 365.454468,141.188675 
	C361.671356,138.401901 357.466736,136.151520 353.870483,133.156876 
	C350.299438,130.183182 347.177826,127.266266 347.792725,121.263306 
	C348.753235,111.885780 347.979187,102.335487 348.078339,92.859840 
	C348.094177,91.344055 348.830566,89.835823 349.638184,88.653435 
	C350.036407,89.992920 350.030273,91.003082 349.987061,92.395821 
	C349.997803,98.901703 348.853577,105.360779 350.455200,111.046379 
	C351.837555,115.953773 354.126770,121.840851 360.330017,123.678528 
	C364.929413,125.041084 369.774109,125.752640 374.167358,127.577751 
	C377.635284,129.018433 379.058197,128.138474 380.359619,125.011978 
	C380.991913,125.058868 381.244781,125.077896 381.409363,125.523880 
	C380.297211,132.338684 382.655487,137.146149 387.903442,139.369339 
	C392.855957,141.467361 397.183136,139.752365 401.983551,134.102753 
	C402.469055,134.892059 402.739227,135.452942 402.738342,136.209076 
	C400.480530,138.763138 398.493805,141.121964 396.727783,143.218750 
	C397.634888,143.498093 399.867401,143.487137 400.721375,144.566666 
	C404.934906,149.893143 410.888855,150.973709 416.973999,152.442017 
	C416.978180,158.610916 416.970642,164.310257 416.599121,169.976532 
	C414.364777,168.994278 412.186371,168.387985 410.679596,167.034164 
	C405.298248,162.199127 399.468628,159.178696 391.809937,160.748230 
	C391.395264,159.676208 391.169708,158.862244 391.105530,157.807190 
	C391.089691,156.913712 390.912445,156.261307 390.735199,155.608902 
	C390.162872,156.397858 389.590546,157.186829 388.732300,157.995316 
	C388.255859,158.029007 388.065308,158.043167 387.874756,158.057343 
z"/>
<path fill="#2EBDBD" opacity="1.000000" stroke="none" 
	d="
M381.497681,125.096931 
	C381.244781,125.077896 380.991913,125.058868 380.153168,124.766220 
	C378.454834,121.233459 377.515289,117.901947 376.189178,114.732193 
	C374.209625,110.000496 370.723785,106.956406 365.796326,105.086464 
	C363.971100,104.393806 363.219574,101.265404 361.471680,99.893295 
	C357.834991,97.038437 353.860077,94.614365 350.024170,92.013237 
	C350.030273,91.003082 350.036407,89.992920 350.041656,88.604095 
	C350.205261,88.182144 350.369751,88.138870 351.235901,88.053955 
	C357.645508,87.660927 363.353394,87.309547 369.061310,86.958168 
	C369.061310,86.958168 369.551849,87.045174 369.897949,87.195389 
	C370.244019,87.345612 370.630432,87.379456 370.630432,87.379456 
	C370.630432,87.379456 370.979492,87.206406 370.979492,87.206406 
	C377.956238,88.393349 382.529938,93.576904 387.844788,97.471954 
	C393.863586,101.882927 399.929840,106.286789 405.516510,111.214088 
	C411.532104,116.519615 416.299896,122.873161 417.873657,131.726318 
	C417.734985,132.611008 417.678406,132.811417 417.492554,133.326172 
	C417.215027,134.765274 417.066772,135.889984 416.537354,137.021408 
	C411.773895,136.690018 407.391663,136.351929 403.009399,136.013840 
	C402.739227,135.452942 402.469055,134.892059 402.039673,133.727600 
	C403.179688,126.347565 400.161377,120.646896 394.391510,118.979561 
	C389.193176,117.477379 383.582642,120.139244 381.497681,125.096931 
z"/>
<path fill="#30ABBA" opacity="1.000000" stroke="none" 
	d="
M349.059021,137.994324 
	C357.827332,145.291428 366.812805,152.347260 375.284698,159.973663 
	C380.598846,164.757462 384.393494,170.738312 386.166229,177.977005 
	C386.816864,180.633652 389.202942,182.865311 390.548706,185.720825 
	C385.939514,187.564774 385.301971,190.814621 386.747711,194.469818 
	C388.617584,199.197449 387.448425,203.013474 384.645233,206.957520 
	C381.910767,210.804871 379.225708,214.897507 380.548828,219.919983 
	C378.907715,218.097397 377.525696,216.462753 376.044281,214.513489 
	C374.286499,212.475174 372.628113,210.751480 371.183289,208.740082 
	C372.413788,204.925537 374.330170,201.380524 374.259369,197.875656 
	C374.114197,190.691269 373.260071,183.616806 376.890472,176.891876 
	C377.483002,175.794281 377.230011,173.315231 376.384064,172.516327 
	C370.928101,167.363571 366.718597,161.295959 359.756958,157.175980 
	C351.472504,152.273117 342.588928,149.666092 333.700439,145.827133 
	C330.270386,143.766937 327.130402,141.887711 323.841858,139.730347 
	C322.785339,138.307922 321.877411,137.163635 320.907318,135.740784 
	C320.560608,134.974716 320.276062,134.487228 319.847839,133.760864 
	C319.208893,132.064499 318.713593,130.606979 318.218323,129.149445 
	C319.944275,127.484924 321.670227,125.820389 323.883698,124.104683 
	C323.596161,125.294998 322.561829,126.451469 322.119080,127.801910 
	C321.677277,129.149658 321.148926,131.300156 321.824493,132.054214 
	C328.405396,139.400040 336.488831,144.004150 346.268433,144.873230 
	C347.307037,142.313049 348.183014,140.153687 349.059021,137.994324 
M362.449860,155.865921 
	C362.260040,155.548203 362.070190,155.230499 361.880341,154.912796 
	C361.764130,155.005264 361.537903,155.163635 361.547974,155.180435 
	C361.737244,155.496185 361.954498,155.795181 362.449860,155.865921 
z"/>
<path fill="#293489" opacity="1.000000" stroke="none" 
	d="
M361.936401,228.054001 
	C356.941498,231.581848 351.882568,235.023407 346.971466,238.664276 
	C342.878906,241.698303 338.959747,244.966217 334.345947,247.947601 
	C333.396851,247.476547 333.065552,247.188416 332.843628,246.592072 
	C333.657715,245.188675 334.362457,244.093491 335.424316,242.971313 
	C339.696106,240.542496 343.784027,238.375443 347.466156,235.658478 
	C350.029480,233.767044 350.055084,231.620499 347.125366,229.257217 
	C343.295593,226.167908 339.704163,222.659225 336.572235,218.866776 
	C333.932251,215.670013 332.094757,211.810532 329.558899,207.686356 
	C329.652588,207.571625 330.579010,206.436752 331.673309,205.096207 
	C327.096985,205.463974 323.050507,205.789139 319.003052,205.850204 
	C319.002808,205.410004 319.003510,205.233932 319.004181,205.057877 
	C319.514893,204.452759 320.025635,203.847641 321.165955,203.104141 
	C322.866211,202.011353 323.936859,201.056961 325.007507,200.102570 
	C325.007507,200.102570 325.009949,199.999359 325.321533,199.886551 
	C326.103424,199.205673 326.573700,198.637589 327.043976,198.069504 
	C327.791473,197.733490 328.539001,197.397461 329.946472,197.002197 
	C331.718262,196.638397 332.830109,196.333832 334.376099,196.030548 
	C339.262665,196.208374 343.715088,196.384918 348.167542,196.561462 
	C348.155304,197.087479 348.143066,197.613495 348.130859,198.139511 
	C345.948181,198.915817 343.765533,199.692123 340.358063,200.904068 
	C343.661072,203.098206 345.839020,204.545013 347.677490,206.139923 
	C344.178284,207.476562 341.018524,208.665115 337.708313,209.906845 
	C337.476379,210.166443 337.394897,210.372864 337.313416,210.579285 
	C337.577942,210.437683 337.842468,210.296082 338.518188,210.138123 
	C342.953217,209.409332 346.977051,208.696884 351.087097,208.321152 
	C354.802795,214.791412 358.432190,220.924957 362.034363,227.307648 
	C361.983521,227.722534 361.959961,227.888275 361.936401,228.054001 
z"/>
<path fill="#2A5093" opacity="1.000000" stroke="none" 
	d="
M236.012878,174.242981 
	C236.756927,174.192322 237.500961,174.141663 238.697662,174.496643 
	C239.956436,177.819427 241.554443,180.777390 241.406601,183.645386 
	C241.081863,189.945328 243.513382,194.142075 249.836731,196.499573 
	C249.901245,198.304520 249.931732,199.695251 249.995087,201.442368 
	C251.153976,204.697968 251.212662,208.652496 256.046387,207.885834 
	C258.988739,210.360352 261.931061,212.834869 264.560486,215.582260 
	C260.307037,213.612122 257.171509,214.206543 254.604477,218.176636 
	C253.109558,220.488632 251.120239,222.480942 248.787216,225.301559 
	C251.504074,227.781647 254.905334,230.566666 257.894806,233.739670 
	C259.592346,235.541428 260.615662,237.978455 261.942596,240.129395 
	C251.166672,230.398697 240.390747,220.667984 229.843369,210.556580 
	C231.666412,208.581467 234.517731,207.084076 234.649521,205.376740 
	C235.448517,195.025421 235.627045,184.626205 236.012878,174.242981 
z"/>
<path fill="#3036B6" opacity="1.000000" stroke="none" 
	d="
M335.067200,242.998322 
	C334.362457,244.093491 333.657715,245.188675 332.539124,246.706635 
	C324.759338,252.348907 317.393402,257.568390 310.027496,262.787903 
	C302.994141,262.518158 295.940674,262.470276 288.940247,261.836670 
	C286.967712,261.658142 285.150604,259.762512 282.904053,258.140625 
	C282.047302,257.407562 281.548676,257.188293 281.050049,256.969025 
	C280.443634,256.464661 279.837219,255.960297 278.995605,254.926956 
	C278.508484,253.897873 278.256561,253.397781 278.222839,252.732422 
	C282.291931,250.383743 286.142761,248.200333 290.431030,246.017273 
	C299.915558,245.010712 308.962677,244.003830 318.270935,243.189270 
	C319.631409,244.400940 320.730713,245.420319 321.965546,246.565338 
	C322.951294,244.503403 323.656250,243.028809 324.642273,240.966263 
	C326.157074,242.910858 327.105713,244.128662 327.822937,245.049377 
	C330.482605,244.296341 332.774933,243.647324 335.067200,242.998322 
z"/>
<path fill="#3BABB9" opacity="1.000000" stroke="none" 
	d="
M265.173828,112.008492 
	C265.148987,109.941940 265.124146,107.875389 265.218506,105.279877 
	C265.428192,104.477249 265.364471,104.255211 265.146545,104.084785 
	C266.152557,101.349251 267.158539,98.613716 268.534271,96.269180 
	C268.622986,99.286621 268.011505,101.938278 268.209167,104.528183 
	C268.299408,105.710617 269.980194,107.703384 270.948822,107.708900 
	C273.641449,107.724251 276.326752,106.803391 279.039093,106.425674 
	C280.634766,106.203453 282.773743,105.627686 283.814301,106.384758 
	C289.372528,110.428619 294.193237,105.948479 299.969177,106.381683 
	C297.560974,102.965797 295.801819,100.470566 294.042664,97.975334 
	C298.334595,101.093842 302.626556,104.212349 307.154877,107.835381 
	C307.552155,108.562531 307.745758,108.751701 307.972046,108.907417 
	C307.972046,108.907417 308.106506,108.921745 308.208069,109.155640 
	C308.477081,109.600128 308.676147,109.774567 308.906921,109.912849 
	C308.906921,109.912849 309.060699,109.920784 309.003571,110.348778 
	C307.596527,112.540245 306.269653,114.321938 304.890686,116.062401 
	C303.303619,118.065468 301.670532,120.032066 300.057404,122.014496 
	C300.057404,122.014496 300.061401,122.058456 299.684357,122.071045 
	C296.402100,122.680305 293.644440,125.979050 290.477234,122.520569 
	C290.231720,122.252480 289.237976,122.637962 288.600983,122.764771 
	C280.604462,124.356728 273.154297,122.706726 265.901672,118.785469 
	C265.555389,118.314293 265.301666,118.110245 264.991211,117.976730 
	C265.040131,116.599625 265.089050,115.222527 265.259216,113.320862 
	C265.473175,112.485359 265.404297,112.222755 265.173828,112.008492 
z"/>
<path fill="#3C87C5" opacity="1.000000" stroke="none" 
	d="
M380.932404,254.036743 
	C380.932404,254.036743 380.996460,254.531189 380.791260,255.018311 
	C379.720123,257.332245 378.854156,259.158997 377.988190,260.985779 
	C377.988190,260.985779 377.999298,260.999298 377.707642,261.175812 
	C373.886444,266.157104 370.090881,270.792908 366.901245,275.813629 
	C363.639557,280.947723 360.971924,286.459259 358.044250,291.805603 
	C357.253937,291.520050 356.463593,291.234528 355.349243,290.450928 
	C354.583893,286.914734 354.437683,283.796509 353.639313,280.855347 
	C352.022339,274.898254 350.052002,269.037109 348.549896,263.027496 
	C353.241272,259.508362 358.167175,256.602844 361.833527,252.556137 
	C366.113708,247.831955 367.794830,247.161392 373.422943,250.758362 
	C375.696075,252.211105 378.415863,252.964874 380.932404,254.036743 
z"/>
<path fill="#2BB8C0" opacity="1.000000" stroke="none" 
	d="
M380.807953,220.107956 
	C379.225708,214.897507 381.910767,210.804871 384.645233,206.957520 
	C387.448425,203.013474 388.617584,199.197449 386.747711,194.469818 
	C385.301971,190.814621 385.939514,187.564774 390.649902,186.052200 
	C390.999786,185.953598 391.056152,185.967316 391.122101,186.331451 
	C392.798767,187.770172 394.409515,188.844757 396.020233,189.919357 
	C396.020233,189.919357 396.066833,189.930206 396.187439,190.141113 
	C396.499847,190.588287 396.728546,190.780731 396.994110,190.929337 
	C397.279358,191.117584 397.564636,191.305832 398.011963,192.079239 
	C400.136536,194.089767 402.099060,195.515106 404.061584,196.940445 
	C404.061584,196.940445 404.550995,197.028488 404.926239,197.253067 
	C405.498749,197.667984 405.722778,197.818466 405.973602,197.929077 
	C405.973602,197.929077 406.082733,197.938797 406.192017,198.167633 
	C406.476654,198.616104 406.687103,198.794449 406.932556,198.931458 
	C409.535431,201.050720 412.138336,203.169998 414.871460,205.610260 
	C411.097290,205.070969 407.192810,204.210678 402.815918,203.246307 
	C402.776337,203.543518 402.751251,204.611160 402.476501,205.610168 
	C401.915527,207.650131 401.858704,210.542389 400.480255,211.532059 
	C388.368530,220.227859 385.804504,232.918762 384.927582,246.533508 
	C384.792480,248.631104 383.427063,250.649445 382.302460,252.455841 
	C382.008698,251.173157 382.043121,250.139038 382.246521,248.860596 
	C382.529602,248.044510 382.643738,247.472763 382.914734,246.583237 
	C383.227386,245.113983 383.383179,243.962494 383.639435,242.369614 
	C383.776154,237.134308 383.812408,232.340408 383.796173,227.191406 
	C383.440735,226.195587 383.137787,225.554871 382.789795,224.810699 
	C382.744751,224.707245 382.828918,224.497833 382.852112,224.098267 
	C382.203918,222.494904 381.532532,221.291107 380.847107,220.085083 
	C380.833069,220.082870 380.807953,220.107956 380.807953,220.107956 
z"/>
<path fill="#222E77" opacity="1.000000" stroke="none" 
	d="
M348.016998,205.991837 
	C345.839020,204.545013 343.661072,203.098206 340.358063,200.904068 
	C343.765533,199.692123 345.948181,198.915817 348.130859,198.139511 
	C348.143066,197.613495 348.155304,197.087479 348.167542,196.561462 
	C343.715088,196.384918 339.262665,196.208374 334.386963,195.765625 
	C333.963959,195.322769 333.964203,195.146133 333.964447,194.969482 
	C338.322601,191.856415 342.976379,192.731720 347.674500,193.911346 
	C349.414856,194.348343 351.193298,194.633713 353.454926,195.303467 
	C355.253571,196.809006 356.551666,197.999313 357.899841,199.168884 
	C357.949951,199.148132 357.930206,199.041626 358.017273,199.298340 
	C358.385559,199.774216 358.666779,199.993347 359.150208,200.400146 
	C359.855713,200.802429 360.359100,201.017059 360.999023,201.413071 
	C361.362305,201.805542 361.625580,201.950043 362.087097,202.292999 
	C363.106842,203.090881 363.964935,203.623672 364.882629,204.158295 
	C364.942261,204.160110 364.947083,204.040878 364.997864,204.325653 
	C365.327362,204.869995 365.606018,205.129547 366.079498,205.637283 
	C367.839447,206.932892 369.404602,207.980331 370.969727,209.027771 
	C372.628113,210.751480 374.286499,212.475174 375.935974,214.831970 
	C375.267822,216.622574 374.608521,217.780075 373.614044,219.019562 
	C371.825623,220.042313 370.372375,220.983093 368.587189,222.006561 
	C366.190674,223.745667 364.126160,225.402084 362.061615,227.058502 
	C358.432190,220.924957 354.802795,214.791412 351.187347,208.078125 
	C350.139893,206.996185 349.078430,206.494003 348.016998,205.991837 
z"/>
<path fill="#3682BA" opacity="1.000000" stroke="none" 
	d="
M357.849762,199.189621 
	C356.551666,197.999313 355.253571,196.809006 353.858856,195.297745 
	C352.042786,191.369858 350.323334,187.762909 348.198914,183.768860 
	C347.508331,182.954239 347.222656,182.526749 346.936981,182.099258 
	C346.936981,182.099258 346.869354,182.093857 346.866730,181.701782 
	C345.852905,179.452957 344.922119,177.546661 343.814636,175.749268 
	C341.069733,171.294464 338.271210,166.871994 335.440643,162.470978 
	C333.759064,159.856461 332.053009,157.251175 330.223907,154.739349 
	C324.990417,147.552322 319.688477,140.415115 314.413452,133.258316 
	C315.565399,132.057510 316.717377,130.856705 318.043823,129.402679 
	C318.713593,130.606979 319.208893,132.064499 319.913422,134.038269 
	C320.404968,135.042786 320.687256,135.531067 320.969513,136.019348 
	C321.877411,137.163635 322.785339,138.307922 323.871063,140.092163 
	C325.087860,142.129501 325.960510,143.701660 327.203522,144.884689 
	C329.238861,146.821793 331.755707,148.284317 333.645447,150.337311 
	C339.818359,157.043442 345.948151,163.802933 351.760559,170.818542 
	C353.417023,172.817871 354.625610,175.699219 354.846893,178.278442 
	C355.451141,185.320755 354.640594,192.524475 357.849762,199.189621 
z"/>
<path fill="#3682BA" opacity="1.000000" stroke="none" 
	d="
M292.833618,135.990143 
	C293.211060,140.014893 293.588470,144.039627 294.021423,148.875305 
	C293.984711,152.479141 294.461639,154.850555 297.986145,154.965118 
	C297.986145,154.965118 298.037598,154.959213 298.081696,155.292755 
	C298.474304,156.380600 298.822815,157.134888 298.854095,158.022400 
	C297.296936,157.949326 295.908417,158.030853 294.845337,157.482025 
	C291.806610,155.913239 289.082886,153.541794 285.903381,152.478653 
	C279.390503,150.300949 272.660950,148.771317 266.010010,146.509659 
	C265.999573,141.024551 265.999725,136.004654 266.356476,131.042847 
	C270.763458,133.858826 274.861328,135.991547 279.755249,132.824478 
	C280.124847,132.585312 281.245178,133.506256 281.668060,133.916809 
	C279.895538,135.063309 278.471466,136.180878 276.872620,137.435638 
	C278.508484,138.966934 279.670807,140.054947 281.724548,141.977417 
	C282.698212,139.610504 283.445007,137.795059 284.549866,136.002380 
	C287.549805,136.013474 290.191711,136.001801 292.833618,135.990143 
z"/>
<path fill="#2A519E" opacity="1.000000" stroke="none" 
	d="
M262.084717,240.436890 
	C260.615662,237.978455 259.592346,235.541428 257.894806,233.739670 
	C254.905334,230.566666 251.504074,227.781647 248.787216,225.301559 
	C251.120239,222.480942 253.109558,220.488632 254.604477,218.176636 
	C257.171509,214.206543 260.307037,213.612122 264.596191,215.927673 
	C264.944794,216.000214 265.012329,215.996490 265.145966,216.205139 
	C265.473938,216.636627 265.692688,216.832123 265.935852,217.000275 
	C265.935852,217.000275 265.999237,216.997009 266.087402,217.351471 
	C267.428558,218.476364 268.681549,219.246796 269.934509,220.017242 
	C269.934509,220.017242 269.999847,220.005234 270.133545,220.212112 
	C270.459564,220.640442 270.675842,220.835266 270.916138,221.003464 
	C271.430176,221.338593 271.944214,221.673721 272.890564,222.254257 
	C273.520325,222.679367 273.739929,222.825958 273.981598,222.939453 
	C274.248108,223.149994 274.514618,223.360535 274.871521,224.136780 
	C274.965881,225.143463 274.969818,225.584427 274.705414,226.225708 
	C273.096893,227.889572 270.334686,230.139267 270.640686,230.692719 
	C273.173920,235.274857 271.050415,238.773499 269.001617,241.132019 
	C270.301636,244.391357 271.208344,246.664581 272.068420,248.967712 
	C272.021790,248.997620 271.934998,249.066452 271.934998,249.066452 
	C268.698944,246.292419 265.462891,243.518387 262.084717,240.436890 
z"/>
<path fill="#2BB8C0" opacity="1.000000" stroke="none" 
	d="
M294.028290,97.980057 
	C295.801819,100.470566 297.560974,102.965797 299.969177,106.381683 
	C294.193237,105.948479 289.372528,110.428619 283.814301,106.384758 
	C282.773743,105.627686 280.634766,106.203453 279.039093,106.425674 
	C276.326752,106.803391 273.641449,107.724251 270.948822,107.708900 
	C269.980194,107.703384 268.299408,105.710617 268.209167,104.528183 
	C268.011505,101.938278 268.622986,99.286621 268.925537,96.232300 
	C270.728546,93.607803 272.510040,91.411194 274.841003,89.181961 
	C276.930847,88.838989 278.471252,88.528648 280.011627,88.218307 
	C280.437134,88.178062 280.862671,88.137817 281.776367,88.298981 
	C282.501740,88.700020 282.767120,88.849777 283.060669,88.949646 
	C283.406891,89.021667 283.675903,89.206230 284.074463,89.938828 
	C284.484009,90.622482 284.723145,90.828392 284.998627,90.992058 
	C284.998627,90.992058 285.002441,90.997421 285.083466,91.330040 
	C288.116486,93.760986 291.068512,95.859306 294.020508,97.957626 
	C294.020508,97.957626 294.013916,97.984779 294.028290,97.980057 
z"/>
<path fill="#2DA6BF" opacity="1.000000" stroke="none" 
	d="
M391.999023,161.006287 
	C399.468628,159.178696 405.298248,162.199127 410.679596,167.034164 
	C412.186371,168.387985 414.364777,168.994278 416.608307,170.443390 
	C416.984070,174.540421 416.714111,178.163620 417.055389,181.728317 
	C417.524811,186.632080 415.760590,188.438126 410.964722,187.054108 
	C410.964722,187.054108 410.991211,187.014633 410.908936,186.688980 
	C410.526489,185.779984 410.377472,184.986816 409.903198,184.645126 
	C403.940582,180.349075 398.893951,175.248596 395.429657,168.686768 
	C395.232269,168.312912 394.611420,168.162598 394.187653,167.908264 
	C394.187653,167.908264 394.091064,167.475784 394.026550,166.898880 
	C393.307709,164.550079 392.653381,162.778183 391.999023,161.006287 
z"/>
<path fill="#2EBDBD" opacity="1.000000" stroke="none" 
	d="
M349.057098,137.970734 
	C348.183014,140.153687 347.307037,142.313049 346.268433,144.873230 
	C336.488831,144.004150 328.405396,139.400040 321.824493,132.054214 
	C321.148926,131.300156 321.677277,129.149658 322.119080,127.801910 
	C322.561829,126.451469 323.596161,125.294998 324.176727,123.929283 
	C326.313416,120.531013 329.214905,121.676880 331.620972,123.301018 
	C335.213806,125.726311 338.469818,128.650497 342.119812,131.852814 
	C342.545532,132.561768 342.757233,132.735809 343.005585,132.865280 
	C343.487000,133.238678 343.968445,133.612091 344.889771,134.227341 
	C345.534180,134.663376 345.764923,134.818436 346.021973,134.934372 
	C346.021973,134.934372 346.078918,134.940048 346.095520,135.310822 
	C347.078094,136.432953 348.044006,137.184311 349.009949,137.935654 
	C349.009949,137.935654 349.055176,137.947144 349.057098,137.970734 
z"/>
<path fill="#3A97B9" opacity="1.000000" stroke="none" 
	d="
M292.898743,135.599701 
	C290.191711,136.001801 287.549805,136.013474 284.248962,135.907532 
	C283.065552,135.155930 282.541046,134.521912 282.016541,133.887909 
	C281.245178,133.506256 280.124847,132.585312 279.755249,132.824478 
	C274.861328,135.991547 270.763458,133.858826 266.343628,130.583984 
	C265.999786,126.372009 266.025391,122.677040 266.051025,118.982063 
	C273.154297,122.706726 280.604462,124.356728 288.600983,122.764771 
	C289.237976,122.637962 290.231720,122.252480 290.477234,122.520569 
	C293.644440,125.979050 296.402100,122.680305 299.662354,122.073059 
	C297.666229,126.444740 295.315033,130.826996 292.898743,135.599701 
z"/>
<path fill="#6E6B98" opacity="1.000000" stroke="none" 
	d="
M263.809448,264.032959 
	C263.481323,264.010376 263.235352,263.856476 263.160461,263.024078 
	C263.544464,261.589478 263.839539,260.702026 264.134613,259.814606 
	C267.003998,262.244720 269.970490,264.570038 272.726135,267.122955 
	C285.216309,278.694153 304.808655,279.852142 317.576996,269.633636 
	C323.474060,264.914215 329.245087,260.037231 335.144440,255.320709 
	C336.358978,254.349701 337.889954,253.774521 339.275085,253.016891 
	C339.671417,253.404678 340.067719,253.792480 340.464050,254.180283 
	C338.480103,256.449097 336.731018,258.994202 334.459686,260.924957 
	C330.615509,264.192749 326.574890,267.274445 322.366669,270.055847 
	C318.481964,272.623413 314.499908,275.376129 310.154602,276.849182 
	C299.177734,280.570251 288.103821,281.887482 277.827240,274.468658 
	C274.288605,271.914062 270.769226,269.332794 266.910217,266.217957 
	C266.004150,265.463348 265.428955,265.254486 264.853729,265.045624 
	C264.853729,265.045624 264.965515,264.977478 264.808960,264.844360 
	C264.371429,264.485168 264.090454,264.259064 263.809448,264.032959 
z"/>
<path fill="#2BB8C0" opacity="1.000000" stroke="none" 
	d="
M358.467896,291.879181 
	C360.971924,286.459259 363.639557,280.947723 366.901245,275.813629 
	C370.090881,270.792908 373.886444,266.157104 377.700562,261.172546 
	C376.802948,264.762573 375.435852,268.488007 374.517273,272.320953 
	C374.063904,274.212769 374.438568,276.302979 374.438568,279.232635 
	C376.825073,277.580231 378.227478,276.609253 380.700592,274.896881 
	C379.997070,278.375916 379.510925,280.780121 378.729370,283.758911 
	C375.288818,286.496521 372.143616,288.659485 368.998413,290.822449 
	C365.629486,291.199219 362.260529,291.575989 358.467896,291.879181 
z"/>
<path fill="#3474BE" opacity="1.000000" stroke="none" 
	d="
M314.243347,133.406555 
	C319.688477,140.415115 324.990417,147.552322 330.223907,154.739349 
	C332.053009,157.251175 333.759064,159.856461 335.440643,162.470978 
	C338.271210,166.871994 341.069733,171.294464 343.814636,175.749268 
	C344.922119,177.546661 345.852905,179.452957 346.868896,181.667923 
	C341.746429,177.960526 336.555817,173.970947 331.530090,169.783417 
	C330.000244,168.508713 328.924957,166.688416 327.301361,164.599365 
	C325.413025,160.449814 323.890320,156.807755 322.311035,153.190384 
	C319.515594,146.787338 313.042419,141.991089 313.925140,133.981049 
	C313.925140,133.981049 314.073242,133.554779 314.243347,133.406555 
z"/>
<path fill="#3254BB" opacity="1.000000" stroke="none" 
	d="
M318.182709,181.037552 
	C315.359344,183.947800 312.535950,186.858063 309.097931,189.981049 
	C307.698761,190.808853 306.914246,191.423935 306.129761,192.039032 
	C306.129761,192.039032 306.106659,192.138412 305.681519,192.102783 
	C301.853149,194.045624 298.449921,196.024094 294.781769,197.775421 
	C290.336060,195.740982 286.155304,193.933685 282.193512,191.878113 
	C282.897614,189.773331 283.382751,187.916824 284.219849,185.968353 
	C290.423187,185.632858 296.315491,184.853851 302.114410,185.296967 
	C307.874115,185.737076 312.894592,185.110092 317.378723,180.960876 
	C317.825378,181.003601 318.004028,181.020569 318.182709,181.037552 
z"/>
<path fill="#286793" opacity="1.000000" stroke="none" 
	d="
M235.634705,174.184357 
	C235.627045,184.626205 235.448517,195.025421 234.649521,205.376740 
	C234.517731,207.084076 231.666412,208.581467 229.643585,210.264709 
	C227.568695,208.478149 225.922119,206.602783 224.359344,204.155960 
	C225.159683,202.924850 226.352158,202.367004 226.518448,201.589645 
	C228.021957,194.560745 229.438416,187.508881 230.619949,180.420319 
	C230.791702,179.389893 229.588028,178.130173 229.020828,176.976562 
	C231.099411,176.026291 233.177979,175.076019 235.634705,174.184357 
z"/>
<path fill="#3682BA" opacity="1.000000" stroke="none" 
	d="
M382.077545,249.104935 
	C382.043121,250.139038 382.008698,251.173157 381.961792,252.594864 
	C381.702789,253.195297 381.472351,253.424301 381.095215,253.853119 
	C378.415863,252.964874 375.696075,252.211105 373.422943,250.758362 
	C367.794830,247.161392 366.113708,247.831955 361.833527,252.556137 
	C358.167175,256.602844 353.241272,259.508362 348.234131,263.100983 
	C346.785522,263.516174 345.975220,263.748962 345.164917,263.981781 
	C347.297363,262.040558 349.386017,260.048248 351.575012,258.173065 
	C353.619934,256.421265 355.613007,254.526382 357.908630,253.166763 
	C362.821808,250.256836 362.935364,245.573227 363.114319,240.100052 
	C363.482666,237.611252 363.758118,235.806473 364.229126,234.264938 
	C370.308960,239.387115 376.193268,244.246033 382.077545,249.104935 
z"/>
<path fill="#77AAA6" opacity="1.000000" stroke="none" 
	d="
M263.973816,259.523102 
	C263.839539,260.702026 263.544464,261.589478 263.115723,262.803345 
	C247.490906,248.867264 231.999756,234.604721 216.508606,220.342163 
	C217.079330,219.705444 217.650040,219.068726 218.220749,218.432022 
	C233.844131,231.534027 248.841125,245.368134 263.973816,259.523102 
z"/>
<path fill="#3A97B9" opacity="1.000000" stroke="none" 
	d="
M228.659973,177.036972 
	C229.588028,178.130173 230.791702,179.389893 230.619949,180.420319 
	C229.438416,187.508881 228.021957,194.560745 226.518448,201.589645 
	C226.352158,202.367004 225.159683,202.924850 224.218964,203.857452 
	C216.637131,196.187210 218.781906,182.717056 228.659973,177.036972 
z"/>
<path fill="#2A519E" opacity="1.000000" stroke="none" 
	d="
M313.628235,134.191483 
	C313.042419,141.991089 319.515594,146.787338 322.311035,153.190384 
	C323.890320,156.807755 325.413025,160.449814 327.002441,164.456787 
	C322.773651,161.000473 317.872223,157.661850 314.392639,153.211517 
	C309.988586,147.578781 309.947601,140.888809 313.628235,134.191483 
z"/>
<path fill="#3474BE" opacity="1.000000" stroke="none" 
	d="
M344.906555,264.057983 
	C345.975220,263.748962 346.785522,263.516174 347.911591,263.209869 
	C350.052002,269.037109 352.022339,274.898254 353.639313,280.855347 
	C354.437683,283.796509 354.583893,286.914734 355.027588,290.387177 
	C354.106628,290.432587 353.183258,290.043640 352.114166,289.026489 
	C348.306610,282.242493 344.644745,276.086670 341.164642,269.661499 
	C342.208374,267.899139 343.070343,266.406128 343.932281,264.913086 
	C344.170929,264.653442 344.409576,264.393829 344.906555,264.057983 
z"/>
<path fill="#2A519E" opacity="1.000000" stroke="none" 
	d="
M364.033569,234.001678 
	C363.758118,235.806473 363.482666,237.611252 362.936401,239.702026 
	C362.438141,236.312881 362.210724,232.637756 361.959839,228.508331 
	C361.959961,227.888275 361.983521,227.722534 362.034363,227.307648 
	C364.126160,225.402084 366.190674,223.745667 368.530579,222.379929 
	C367.630829,225.903503 368.267883,228.392929 371.370270,230.331985 
	C374.033600,231.996643 376.433746,234.082428 378.961700,236.001114 
	C378.973114,236.020248 379.002167,236.054001 379.084167,236.362457 
	C380.078949,237.461823 380.991730,238.252762 381.936462,239.351547 
	C382.491913,240.709946 383.015442,241.760483 383.538971,242.811005 
	C383.383179,243.962494 383.227386,245.113983 382.747650,246.316864 
	C377.444519,241.698334 372.514984,236.973694 367.462341,232.384644 
	C365.360504,230.475677 364.280975,231.555756 364.033569,234.001678 
z"/>
<path fill="#274585" opacity="1.000000" stroke="none" 
	d="
M249.802704,196.085388 
	C243.513382,194.142075 241.081863,189.945328 241.406601,183.645386 
	C241.554443,180.777390 239.956436,177.819427 239.067612,174.556641 
	C240.463104,174.116058 241.941330,174.021072 243.594330,174.213715 
	C244.842239,175.312454 245.915375,176.123581 246.988510,176.934692 
	C246.988510,176.934692 247.062180,176.934753 247.145981,177.251572 
	C247.808029,178.041428 248.386276,178.514465 248.964523,178.987503 
	C248.964523,178.987503 249.021439,178.983917 248.993896,179.466370 
	C249.245132,185.327682 249.523911,190.706543 249.802704,196.085388 
z"/>
<path fill="#3264BE" opacity="1.000000" stroke="none" 
	d="
M340.982880,269.930847 
	C344.644745,276.086670 348.306610,282.242493 351.965027,288.753906 
	C349.398499,287.647858 346.835388,286.186249 343.989655,284.109711 
	C342.425446,282.285675 341.253937,280.925293 339.840759,279.897095 
	C336.275757,277.303192 334.572754,274.280121 336.966797,270.006836 
	C336.966797,270.006836 336.967804,269.959381 337.386841,269.992188 
	C338.864868,269.993652 339.923859,269.962250 340.982880,269.930847 
z"/>
<path fill="#3BABB9" opacity="1.000000" stroke="none" 
	d="
M369.383301,290.887817 
	C372.143616,288.659485 375.288818,286.496521 378.718781,284.143829 
	C379.881195,283.468689 380.758881,282.983307 382.136932,282.174805 
	C383.768402,280.911804 384.899506,279.971863 386.030609,279.031952 
	C392.112213,274.783386 398.157532,270.481384 404.297119,266.318298 
	C406.176819,265.043732 408.315033,264.150391 410.701172,263.070129 
	C407.393890,266.222107 403.927216,269.674652 400.003815,272.490936 
	C391.776642,278.396515 383.355408,284.037598 374.894501,289.605957 
	C373.495972,290.526398 371.492249,290.527313 369.383301,290.887817 
z"/>
<path fill="#3254BB" opacity="1.000000" stroke="none" 
	d="
M265.209747,186.954300 
	C265.163086,186.531204 265.116455,186.108093 265.034241,185.099213 
	C264.998260,184.333008 264.997772,184.152588 265.008972,183.997131 
	C265.020599,184.022095 264.965942,184.028885 265.173584,183.776993 
	C265.565552,182.687500 265.749817,181.849915 265.965881,180.747192 
	C266.022980,180.305847 266.048248,180.129639 266.422729,179.930969 
	C268.561798,179.281937 270.351685,178.655365 271.582092,178.224640 
	C274.281128,180.683548 276.700043,182.887268 279.091858,185.085510 
	C279.064758,185.080032 279.019318,185.053741 278.840973,185.193573 
	C278.434509,185.533539 278.231873,185.756775 278.049316,186.023499 
	C278.043915,186.043869 278.003113,186.054489 277.822571,186.198486 
	C277.410004,186.547867 277.205902,186.778015 276.991882,187.374695 
	C276.900330,188.172394 276.846680,188.628326 276.393799,189.065582 
	C273.290253,188.731598 270.585968,188.416260 267.625732,187.960388 
	C266.649811,187.531326 265.929779,187.242813 265.209747,186.954300 
z"/>
<path fill="#3A97B9" opacity="1.000000" stroke="none" 
	d="
M411.067749,187.378159 
	C415.760590,188.438126 417.524811,186.632080 417.055389,181.728317 
	C416.714111,178.163620 416.984070,174.540421 416.972290,170.476456 
	C416.970642,164.310257 416.978180,158.610916 416.982849,151.979050 
	C416.959473,146.369263 416.938995,141.691986 416.918518,137.014709 
	C417.066772,135.889984 417.215027,134.765274 417.555542,133.792816 
	C417.812805,152.761276 417.877777,171.577469 417.942749,190.393646 
	C415.685455,189.496506 413.428101,188.599350 411.067749,187.378159 
z"/>
<path fill="#3BABB9" opacity="1.000000" stroke="none" 
	d="
M423.421570,249.943451 
	C424.052551,245.258438 425.888031,240.436630 425.788696,235.655014 
	C425.657623,229.343765 424.009125,223.064041 423.025604,216.370300 
	C424.562592,219.724991 426.749023,223.357559 427.471588,227.261108 
	C428.920593,235.088898 428.221069,242.835175 423.421570,249.943451 
z"/>
<path fill="#2B3E9A" opacity="1.000000" stroke="none" 
	d="
M310.406189,262.807800 
	C317.393402,257.568390 324.759338,252.348907 332.429749,247.014862 
	C333.065552,247.188416 333.396851,247.476547 333.990051,247.961594 
	C328.481720,252.300140 322.785614,256.551849 316.896057,260.516144 
	C315.137238,261.700012 312.837036,262.079590 310.406189,262.807800 
z"/>
<path fill="#6E6B98" opacity="1.000000" stroke="none" 
	d="
M264.097626,184.013046 
	C264.072205,163.965805 264.046783,143.918579 264.315002,123.753860 
	C264.768677,134.109406 264.928680,144.582443 265.056030,155.517181 
	C265.034576,164.325623 265.045776,172.672363 265.017456,181.393524 
	C264.973938,182.521576 264.969940,183.275238 264.965942,184.028885 
	C264.965942,184.028885 265.020599,184.022095 264.784729,184.022888 
	C264.548859,184.023666 264.097626,184.013046 264.097626,184.013046 
z"/>
<path fill="#77AAA6" opacity="1.000000" stroke="none" 
	d="
M418.340332,190.144867 
	C417.877777,171.577469 417.812805,152.761276 417.684814,133.478455 
	C417.678406,132.811417 417.734985,132.611008 417.874084,132.108932 
	C418.330658,132.288788 419.032959,132.771332 419.031494,133.251709 
	C418.973541,152.133301 418.851562,171.014679 418.340332,190.144867 
z"/>
<path fill="#2C47A7" opacity="1.000000" stroke="none" 
	d="
M295.046722,198.002563 
	C298.449921,196.024094 301.853149,194.045624 305.631531,192.092560 
	C300.297272,198.367233 293.763031,203.161484 284.970154,203.845520 
	C284.230530,203.903061 283.446533,203.389633 282.523834,202.833572 
	C282.572968,202.333862 282.795441,202.160019 283.434052,202.002121 
	C287.572998,200.667587 291.309875,199.335083 295.046722,198.002563 
z"/>
<path fill="#3A97B9" opacity="1.000000" stroke="none" 
	d="
M394.085693,168.281189 
	C394.611420,168.162598 395.232269,168.312912 395.429657,168.686768 
	C398.893951,175.248596 403.940582,180.349075 409.903198,184.645126 
	C410.377472,184.986816 410.526489,185.779984 410.889221,186.701691 
	C403.155304,182.886795 396.557404,177.627380 394.085693,168.281189 
z"/>
<path fill="#2B3E9A" opacity="1.000000" stroke="none" 
	d="
M283.031952,202.004135 
	C282.795441,202.160019 282.572968,202.333862 282.215912,202.676453 
	C275.441528,202.710007 271.056000,198.785736 267.480957,193.850525 
	C266.228516,192.121597 265.834717,189.770676 265.129272,187.329041 
	C265.929779,187.242813 266.649811,187.531326 267.684998,188.317612 
	C269.739319,196.940201 276.577057,199.253998 283.031952,202.004135 
z"/>
<path fill="#222E77" opacity="1.000000" stroke="none" 
	d="
M249.836731,196.499573 
	C249.523911,190.706543 249.245132,185.327682 248.987244,179.494110 
	C249.963531,180.953156 251.565247,182.808304 251.745193,184.792404 
	C252.172897,189.507950 251.927551,194.284531 251.680008,199.617737 
	C250.924637,200.494690 250.443420,200.790344 249.962204,201.085999 
	C249.931732,199.695251 249.901245,198.304520 249.836731,196.499573 
z"/>
<path fill="#286793" opacity="1.000000" stroke="none" 
	d="
M318.547729,181.036850 
	C318.004028,181.020569 317.825378,181.003601 317.451447,180.650452 
	C317.721069,178.230225 321.174011,176.501282 317.783936,173.746521 
	C315.959167,171.730331 314.358704,169.953384 312.850433,168.104309 
	C312.942596,168.032166 313.122406,167.882278 313.122406,167.882263 
	C315.814392,169.777588 318.775787,171.390518 321.131714,173.638077 
	C324.234436,176.598114 323.294128,179.216507 318.547729,181.036850 
z"/>
<path fill="#286793" opacity="1.000000" stroke="none" 
	d="
M265.088684,155.055481 
	C264.928680,144.582443 264.768677,134.109406 264.376526,123.284378 
	C264.200775,121.407463 264.257172,119.882538 264.652374,118.167175 
	C265.301666,118.110245 265.555389,118.314293 265.901703,118.785469 
	C266.025391,122.677040 265.999786,126.372009 265.987030,130.525864 
	C265.999725,136.004654 265.999573,141.024551 265.995789,146.957031 
	C265.962891,150.249466 265.933563,152.629364 265.700684,155.018005 
	C265.497070,155.026749 265.088684,155.055481 265.088684,155.055481 
z"/>
<path fill="#2A519E" opacity="1.000000" stroke="none" 
	d="
M336.606079,270.026611 
	C334.572754,274.280121 336.275757,277.303192 339.840759,279.897095 
	C341.253937,280.925293 342.425446,282.285675 343.814941,283.816193 
	C339.760040,282.330292 335.579956,280.762268 333.806763,275.796753 
	C332.709900,272.725189 333.374481,271.095184 336.606079,270.026611 
z"/>
<path fill="#3A97B9" opacity="1.000000" stroke="none" 
	d="
M300.402283,121.970337 
	C301.670532,120.032066 303.303619,118.065468 304.890686,116.062401 
	C306.269653,114.321938 307.596527,112.540245 309.000366,110.425697 
	C311.830933,111.580688 311.260559,113.355858 309.309021,115.014259 
	C306.514893,117.388641 303.606689,119.628738 300.402283,121.970337 
z"/>
<path fill="#274585" opacity="1.000000" stroke="none" 
	d="
M274.973755,226.025391 
	C274.969818,225.584427 274.965881,225.143463 274.975891,224.372162 
	C279.017731,224.682693 283.045593,225.323563 287.570099,226.036880 
	C288.066742,226.109344 288.189789,226.294296 287.897247,226.516327 
	C283.394379,226.500702 279.184082,226.263046 274.973755,226.025391 
z"/>
<path fill="#30ABBA" opacity="1.000000" stroke="none" 
	d="
M368.815552,86.606346 
	C363.353394,87.309547 357.645508,87.660927 351.484680,87.997559 
	C356.877777,87.406715 362.723816,86.830620 368.815552,86.606346 
z"/>
<path fill="#274585" opacity="1.000000" stroke="none" 
	d="
M288.005188,226.016876 
	C291.372437,223.968384 294.801270,222.012375 298.639679,220.041412 
	C299.049225,220.026459 299.158875,220.104904 299.120636,220.334198 
	C299.082397,220.563477 299.024841,221.024796 299.014923,221.015411 
	C299.005005,221.006042 299.009460,221.020737 298.766052,221.171997 
	C298.004852,221.877716 297.487000,222.432159 296.627075,223.081482 
	C293.586578,224.215652 290.888184,225.254974 288.189789,226.294296 
	C288.189789,226.294296 288.066742,226.109344 288.005188,226.016876 
z"/>
<path fill="#3A97B9" opacity="1.000000" stroke="none" 
	d="
M391.809937,160.748230 
	C392.653381,162.778183 393.307709,164.550079 393.978912,166.682495 
	C392.005768,164.281357 390.015778,161.519699 387.950287,158.407684 
	C388.065308,158.043167 388.255859,158.029007 389.053345,158.007446 
	C390.088287,158.016129 390.516235,158.032196 390.944153,158.048264 
	C391.169708,158.862244 391.395264,159.676208 391.809937,160.748230 
z"/>
<path fill="#3BABB9" opacity="1.000000" stroke="none" 
	d="
M293.912231,97.637047 
	C291.068512,95.859306 288.116486,93.760986 285.085876,91.331940 
	C287.939514,93.106308 290.871765,95.211388 293.912231,97.637047 
z"/>
<path fill="#274585" opacity="1.000000" stroke="none" 
	d="
M249.995087,201.442383 
	C250.443420,200.790344 250.924637,200.494690 251.662766,200.083694 
	C253.205826,202.399658 254.491959,204.830963 255.912231,207.574051 
	C251.212662,208.652496 251.153976,204.697968 249.995087,201.442383 
z"/>
<path fill="#286793" opacity="1.000000" stroke="none" 
	d="
M302.145844,157.842316 
	C304.688721,159.991516 307.231567,162.140717 309.862671,164.687241 
	C309.950928,165.084549 309.788788,165.303543 309.436035,165.221893 
	C306.626282,162.856964 304.169312,160.573685 301.820740,158.178436 
	C301.929169,158.066452 302.145844,157.842316 302.145844,157.842316 
z"/>
<path fill="#3BABB9" opacity="1.000000" stroke="none" 
	d="
M411.407593,263.044342 
	C413.155884,261.107941 415.261902,259.138916 417.720215,257.120911 
	C415.970123,259.051819 413.867737,261.031769 411.407593,263.044342 
z"/>
<path fill="#274585" opacity="1.000000" stroke="none" 
	d="
M304.804871,214.805084 
	C306.939514,213.206665 309.074158,211.608246 311.625122,210.030380 
	C312.041473,210.050934 312.177307,210.195496 312.041565,210.503662 
	C309.626221,212.244492 307.346588,213.677170 305.002808,215.032486 
	C304.938629,214.955124 304.804871,214.805084 304.804871,214.805084 
z"/>
<path fill="#274585" opacity="1.000000" stroke="none" 
	d="
M318.648743,205.080185 
	C319.003510,205.233932 319.002808,205.410004 318.756714,206.063507 
	C316.400024,207.759125 314.288666,208.977310 312.177307,210.195496 
	C312.177307,210.195496 312.041473,210.050934 311.973267,209.978912 
	C314.034485,208.305435 316.163910,206.703964 318.648743,205.080185 
z"/>
<path fill="#3BABB9" opacity="1.000000" stroke="none" 
	d="
M418.408051,256.969635 
	C419.518982,254.778641 420.959473,252.495758 422.738495,250.139832 
	C421.630524,252.337097 420.184082,254.607422 418.408051,256.969635 
z"/>
<path fill="#2A519E" opacity="1.000000" stroke="none" 
	d="
M341.164642,269.661499 
	C339.923859,269.962250 338.864868,269.993652 337.410034,269.997253 
	C339.109528,268.368164 341.204865,266.766815 343.616241,265.039246 
	C343.070343,266.406128 342.208374,267.899139 341.164642,269.661499 
z"/>
<path fill="#286793" opacity="1.000000" stroke="none" 
	d="
M297.875488,154.645996 
	C294.461639,154.850555 293.984711,152.479141 294.085022,149.285782 
	C295.316986,150.699173 296.540924,152.513016 297.875488,154.645996 
z"/>
<path fill="#30ABBA" opacity="1.000000" stroke="none" 
	d="
M403.930725,196.633850 
	C402.099060,195.515106 400.136536,194.089767 398.098938,192.325577 
	C399.949188,193.433578 401.874512,194.880417 403.930725,196.633850 
z"/>
<path fill="#30ABBA" opacity="1.000000" stroke="none" 
	d="
M395.921509,189.599442 
	C394.409515,188.844757 392.798767,187.770172 391.116577,186.359818 
	C392.637695,187.109222 394.230225,188.194382 395.921509,189.599442 
z"/>
<path fill="#2A519E" opacity="1.000000" stroke="none" 
	d="
M276.453308,253.769852 
	C275.346344,252.747818 274.239380,251.725800 273.059753,250.350891 
	C272.987061,249.998001 273.062317,249.888779 273.455200,249.913345 
	C274.896698,249.972855 275.945343,250.007812 277.013245,250.396515 
	C277.067383,251.455399 277.102264,252.160538 276.960663,253.087555 
	C276.673889,253.462906 276.563599,253.616379 276.453308,253.769852 
z"/>
<path fill="#274585" opacity="1.000000" stroke="none" 
	d="
M299.973755,218.972366 
	C301.030457,217.981537 302.087128,216.990707 303.558563,215.981262 
	C303.973297,215.962646 304.109222,216.078796 303.989075,216.395020 
	C302.615875,217.532883 301.362793,218.354523 300.076202,219.124893 
	C300.042664,219.073639 299.973755,218.972366 299.973755,218.972366 
z"/>
<path fill="#274585" opacity="1.000000" stroke="none" 
	d="
M324.705750,200.204468 
	C323.936859,201.056961 322.866211,202.011353 321.441711,202.983368 
	C322.193207,202.102798 323.298615,201.204590 324.705750,200.204468 
z"/>
<path fill="#286793" opacity="1.000000" stroke="none" 
	d="
M299.171326,157.889175 
	C298.822815,157.134888 298.474304,156.380600 298.079529,155.318573 
	C299.301971,155.757782 300.570618,156.504730 301.992554,157.546997 
	C302.145844,157.842316 301.929169,158.066452 301.509674,158.098145 
	C300.450562,158.049637 299.810944,157.969406 299.171326,157.889175 
z"/>
<path fill="#222E77" opacity="1.000000" stroke="none" 
	d="
M246.865967,176.662354 
	C245.915375,176.123581 244.842239,175.312454 243.915161,174.303955 
	C244.955276,174.867722 245.849350,175.628876 246.865967,176.662354 
z"/>
<path fill="#3BABB9" opacity="1.000000" stroke="none" 
	d="
M421.002686,212.631348 
	C420.048218,211.865509 419.058472,210.768661 418.061249,209.318817 
	C419.024963,210.077332 419.996216,211.188812 421.002686,212.631348 
z"/>
<path fill="#2A5093" opacity="1.000000" stroke="none" 
	d="
M269.814087,219.715225 
	C268.681549,219.246796 267.428558,218.476364 266.081665,217.382660 
	C267.223053,217.844009 268.458374,218.628616 269.814087,219.715225 
z"/>
<path fill="#3BABB9" opacity="1.000000" stroke="none" 
	d="
M279.625427,88.135391 
	C278.471252,88.528648 276.930847,88.838989 275.147095,89.055725 
	C276.348877,88.658905 277.794037,88.355690 279.625427,88.135391 
z"/>
<path fill="#274585" opacity="1.000000" stroke="none" 
	d="
M333.629944,195.006927 
	C333.964203,195.146133 333.963959,195.322769 333.952820,195.764343 
	C332.830109,196.333832 331.718262,196.638397 330.249695,196.937393 
	C331.027100,196.302673 332.161255,195.673523 333.629944,195.006927 
z"/>
<path fill="#30ABBA" opacity="1.000000" stroke="none" 
	d="
M348.930542,137.639648 
	C348.044006,137.184311 347.078094,136.432953 346.090088,135.338928 
	C346.995728,135.778702 347.923462,136.561172 348.930542,137.639648 
z"/>
<path fill="#2C47A7" opacity="1.000000" stroke="none" 
	d="
M306.454224,192.056763 
	C306.914246,191.423935 307.698761,190.808853 308.812439,190.160583 
	C308.353973,190.776443 307.566315,191.425476 306.454224,192.056763 
z"/>
<path fill="#274585" opacity="1.000000" stroke="none" 
	d="
M326.679260,197.987244 
	C326.573700,198.637589 326.103424,199.205673 325.373169,199.887848 
	C325.513641,199.302979 325.914124,198.603989 326.679260,197.987244 
z"/>
<path fill="#222E77" opacity="1.000000" stroke="none" 
	d="
M248.867935,178.719543 
	C248.386276,178.514465 247.808029,178.041428 247.146637,177.288406 
	C247.632767,177.489487 248.202057,177.970551 248.867935,178.719543 
z"/>
<path fill="#2A519E" opacity="1.000000" stroke="none" 
	d="
M278.004608,252.897690 
	C278.256561,253.397781 278.508484,253.897873 278.872314,254.653625 
	C278.262787,254.686264 277.541290,254.463242 276.636566,254.005035 
	C276.563599,253.616379 276.673889,253.462906 277.176514,253.103058 
	C277.568848,252.896667 278.004608,252.897690 278.004608,252.897690 
z"/>
<path fill="#2A519E" opacity="1.000000" stroke="none" 
	d="
M281.161438,257.243744 
	C281.548676,257.188293 282.047302,257.407562 282.738220,257.820618 
	C282.377930,257.849121 281.825378,257.683807 281.161438,257.243744 
z"/>
<path fill="#77AAA6" opacity="1.000000" stroke="none" 
	d="
M265.019379,265.314270 
	C265.428955,265.254486 266.004150,265.463348 266.761169,265.922729 
	C266.356995,265.976471 265.771027,265.779694 265.019379,265.314270 
z"/>
<path fill="#3474BE" opacity="1.000000" stroke="none" 
	d="
M346.941895,182.402954 
	C347.222656,182.526749 347.508331,182.954239 347.868774,183.630478 
	C347.611328,183.488358 347.279083,183.097504 346.941895,182.402954 
z"/>
<path fill="#77AAA6" opacity="1.000000" stroke="none" 
	d="
M263.925598,264.299622 
	C264.090454,264.259064 264.371429,264.485168 264.843140,264.900208 
	C264.703125,264.914886 264.372406,264.740601 263.925598,264.299622 
z"/>
<path fill="#2A519E" opacity="1.000000" stroke="none" 
	d="
M272.944305,250.048691 
	C272.560120,250.017197 272.292816,249.829437 272.017334,249.301300 
	C271.934998,249.066452 272.021790,248.997620 272.237091,249.115051 
	C272.670715,249.437302 272.874023,249.656067 273.062317,249.888779 
	C273.062317,249.888779 272.987061,249.998001 272.944305,250.048691 
z"/>
<path fill="#3A97B9" opacity="1.000000" stroke="none" 
	d="
M307.941284,108.686066 
	C307.745758,108.751701 307.552155,108.562531 307.293427,108.165512 
	C307.518188,108.021698 307.756500,108.179565 307.941284,108.686066 
z"/>
<path fill="#30ABBA" opacity="1.000000" stroke="none" 
	d="
M345.981201,134.675629 
	C345.764923,134.818436 345.534180,134.663376 345.184387,134.319229 
	C345.339508,134.251831 345.639954,134.334366 345.981201,134.675629 
z"/>
<path fill="#286793" opacity="1.000000" stroke="none" 
	d="
M265.080261,104.295280 
	C265.364471,104.255211 265.428192,104.477249 265.246704,104.837334 
	C265.155731,104.923759 265.013947,104.505775 265.080261,104.295280 
z"/>
<path fill="#30ABBA" opacity="1.000000" stroke="none" 
	d="
M342.957764,132.643951 
	C342.757233,132.735809 342.545532,132.561768 342.262207,132.169556 
	C342.488068,131.992813 342.740082,132.135040 342.957764,132.643951 
z"/>
<path fill="#3BABB9" opacity="1.000000" stroke="none" 
	d="
M284.935028,90.742691 
	C284.723145,90.828392 284.484009,90.622482 284.149536,90.177261 
	C284.302338,90.151245 284.586884,90.322281 284.935028,90.742691 
z"/>
<path fill="#3A97B9" opacity="1.000000" stroke="none" 
	d="
M308.868683,109.695656 
	C308.676147,109.774567 308.477081,109.600128 308.201965,109.222969 
	C308.419037,109.058746 308.664429,109.199425 308.868683,109.695656 
z"/>
<path fill="#286793" opacity="1.000000" stroke="none" 
	d="
M265.106873,112.262421 
	C265.404297,112.222755 265.473175,112.485359 265.286194,112.907700 
	C265.141205,112.851509 265.090546,112.683922 265.106873,112.262421 
z"/>
<path fill="#3BABB9" opacity="1.000000" stroke="none" 
	d="
M282.989380,88.677910 
	C282.767120,88.849777 282.501740,88.700020 282.095276,88.343384 
	C282.256744,88.259651 282.587402,88.332909 282.989380,88.677910 
z"/>
<path fill="#30ABBA" opacity="1.000000" stroke="none" 
	d="
M370.742310,87.140106 
	C370.979492,87.206406 370.630432,87.379456 370.630432,87.379456 
	C370.630432,87.379456 370.244019,87.345612 370.135681,87.269646 
	C370.027374,87.193680 370.505096,87.073799 370.742310,87.140106 
z"/>
<path fill="#274585" opacity="1.000000" stroke="none" 
	d="
M303.906799,215.902878 
	C303.907990,215.502563 304.082123,215.230026 304.583801,214.915283 
	C304.804871,214.805084 304.938629,214.955124 304.844482,215.194992 
	C304.538879,215.651718 304.325165,215.866364 304.109222,216.078796 
	C304.109222,216.078796 303.973297,215.962646 303.906799,215.902878 
z"/>
<path fill="#30ABBA" opacity="1.000000" stroke="none" 
	d="
M406.886780,198.707489 
	C406.687103,198.794449 406.476654,198.616104 406.187927,198.222260 
	C406.411652,198.049759 406.667114,198.194916 406.886780,198.707489 
z"/>
<path fill="#30ABBA" opacity="1.000000" stroke="none" 
	d="
M405.928192,197.686310 
	C405.722778,197.818466 405.498749,197.667984 405.163025,197.328873 
	C405.391357,197.005081 405.677429,197.092896 405.928192,197.686310 
z"/>
<path fill="#2BB8C0" opacity="1.000000" stroke="none" 
	d="
M415.972412,206.701294 
	C415.780914,206.775772 415.550018,206.577698 415.204895,206.169800 
	C415.345734,206.146210 415.626526,206.302475 415.972412,206.701294 
z"/>
<path fill="#3BABB9" opacity="1.000000" stroke="none" 
	d="
M416.995758,207.712036 
	C416.807404,207.761719 416.551727,207.546494 416.155273,207.122040 
	C416.319122,207.090912 416.623779,207.269012 416.995758,207.712036 
z"/>
<path fill="#30ABBA" opacity="1.000000" stroke="none" 
	d="
M396.933289,190.693268 
	C396.728546,190.780731 396.499847,190.588287 396.181274,190.164215 
	C396.408691,189.998108 396.681335,190.158371 396.933289,190.693268 
z"/>
<path fill="#3BABB9" opacity="1.000000" stroke="none" 
	d="
M417.983704,208.710358 
	C417.745728,208.822571 417.492065,208.617081 417.155304,208.144257 
	C417.324188,208.106369 417.622803,208.278275 417.983704,208.710358 
z"/>
<path fill="#3BABB9" opacity="1.000000" stroke="none" 
	d="
M421.858673,213.772797 
	C421.577820,213.841446 421.384125,213.615433 421.125732,213.160706 
	C421.324646,213.140884 421.619568,213.322937 421.858673,213.772797 
z"/>
<path fill="#286793" opacity="1.000000" stroke="none" 
	d="
M310.036377,164.978439 
	C310.455383,164.963699 310.721588,165.150879 310.939453,165.738892 
	C310.958405,166.043930 310.804504,166.197357 310.638489,166.044281 
	C310.252563,165.686035 310.024658,165.490143 309.788788,165.303543 
	C309.788788,165.303543 309.950928,165.084549 310.036377,164.978439 
z"/>
<path fill="#3BABB9" opacity="1.000000" stroke="none" 
	d="
M422.971558,215.727051 
	C422.755096,215.819931 422.509003,215.613663 422.168274,215.159790 
	C422.323639,215.131149 422.613068,215.303055 422.971558,215.727051 
z"/>
<path fill="#2A5093" opacity="1.000000" stroke="none" 
	d="
M265.864136,216.774994 
	C265.692688,216.832123 265.473938,216.636627 265.146179,216.238937 
	C265.350769,216.100494 265.610657,216.262375 265.864136,216.774994 
z"/>
<path fill="#274585" opacity="1.000000" stroke="none" 
	d="
M298.995361,219.985962 
	C299.041443,219.616440 299.233459,219.355026 299.745605,219.066803 
	C299.973755,218.972366 300.042664,219.073639 299.920685,219.282440 
	C299.588043,219.698486 299.374756,219.903046 299.158875,220.104904 
	C299.158875,220.104904 299.049225,220.026459 298.995361,219.985962 
z"/>
<path fill="#2B3E9A" opacity="1.000000" stroke="none" 
	d="
M264.101562,184.274200 
	C264.097626,184.013046 264.548859,184.023666 264.773071,183.997925 
	C264.997772,184.152588 264.998260,184.333008 264.983154,184.783752 
	C264.680206,184.881180 264.392822,184.708252 264.101562,184.274200 
z"/>
<path fill="#2A5093" opacity="1.000000" stroke="none" 
	d="
M270.859375,220.770309 
	C270.675842,220.835266 270.459564,220.640442 270.134918,220.245300 
	C270.353790,220.081512 270.620483,220.236694 270.859375,220.770309 
z"/>
<path fill="#2A5093" opacity="1.000000" stroke="none" 
	d="
M273.926819,222.708862 
	C273.739929,222.825958 273.520325,222.679367 273.181091,222.359833 
	C273.391632,222.065674 273.669159,222.151764 273.926819,222.708862 
z"/>
<path fill="#286793" opacity="1.000000" stroke="none" 
	d="
M312.133820,166.855667 
	C312.408264,167.038849 312.682739,167.222031 313.039795,167.643738 
	C313.122406,167.882278 312.942596,168.032166 312.717194,167.917755 
	C312.289062,167.573685 312.071899,167.358612 311.914185,167.083008 
	C311.988068,167.007889 312.133820,166.855667 312.133820,166.855667 
z"/>
<path fill="#286793" opacity="1.000000" stroke="none" 
	d="
M311.035950,165.967804 
	C311.452362,165.958633 311.721924,166.132828 312.028015,166.634949 
	C312.133820,166.855667 311.988068,167.007889 311.741150,166.923370 
	C311.264130,166.625229 311.034210,166.411392 310.804504,166.197357 
	C310.804504,166.197357 310.958405,166.043930 311.035950,165.967804 
z"/>
<path fill="#2BB8C0" opacity="1.000000" stroke="none" 
	d="
M378.294556,260.874390 
	C378.854156,259.158997 379.720123,257.332245 380.819977,255.265945 
	C380.236237,256.938629 379.418610,258.850830 378.294556,260.874390 
z"/>
<path fill="#2BB8C0" opacity="1.000000" stroke="none" 
	d="
M385.734558,278.914917 
	C384.899506,279.971863 383.768402,280.911804 382.323578,281.928040 
	C383.152771,280.935577 384.295654,279.866760 385.734558,278.914917 
z"/>
<path fill="#2BB8C0" opacity="1.000000" stroke="none" 
	d="
M349.987061,92.395821 
	C353.860077,94.614365 357.834991,97.038437 361.471680,99.893295 
	C363.219574,101.265404 363.971100,104.393806 365.796326,105.086464 
	C370.723785,106.956406 374.209625,110.000496 376.189178,114.732193 
	C377.515289,117.901947 378.454834,121.233459 379.773804,124.738358 
	C379.058197,128.138474 377.635284,129.018433 374.167358,127.577751 
	C369.774109,125.752640 364.929413,125.041084 360.330017,123.678528 
	C354.126770,121.840851 351.837555,115.953773 350.455200,111.046379 
	C348.853577,105.360779 349.997803,98.901703 349.987061,92.395821 
z"/>
<path fill="#EDFAFA" opacity="1.000000" stroke="none" 
	d="
M381.409363,125.523880 
	C383.582642,120.139244 389.193176,117.477379 394.391510,118.979561 
	C400.161377,120.646896 403.179688,126.347565 401.824402,133.499176 
	C397.183136,139.752365 392.855957,141.467361 387.903442,139.369339 
	C382.655487,137.146149 380.297211,132.338684 381.409363,125.523880 
z"/>
<path fill="#2BB8C0" opacity="1.000000" stroke="none" 
	d="
M416.537354,137.021408 
	C416.938995,141.691986 416.959473,146.369263 416.971130,151.509521 
	C410.888855,150.973709 404.934906,149.893143 400.721375,144.566666 
	C399.867401,143.487137 397.634888,143.498093 396.727783,143.218750 
	C398.493805,141.121964 400.480530,138.763138 402.738342,136.209076 
	C407.391663,136.351929 411.773895,136.690018 416.537354,137.021408 
z"/>
<path fill="#2DA6BF" opacity="1.000000" stroke="none" 
	d="
M391.105560,157.807190 
	C390.516235,158.032196 390.088287,158.016129 389.339294,157.987930 
	C389.590546,157.186829 390.162872,156.397858 390.735199,155.608902 
	C390.912445,156.261307 391.089691,156.913712 391.105560,157.807190 
z"/>
<path fill="#2DA6BF" opacity="1.000000" stroke="none" 
	d="
M371.183289,208.740082 
	C369.404602,207.980331 367.839447,206.932892 365.958740,205.387695 
	C365.411133,204.606918 365.179108,204.323898 364.947083,204.040863 
	C364.947083,204.040878 364.942261,204.160110 364.797058,203.838577 
	C363.743042,203.020676 362.834198,202.524307 361.925385,202.027954 
	C361.625580,201.950043 361.362305,201.805542 361.198700,201.103241 
	C364.586304,194.886322 367.480560,189.275574 366.405273,182.073990 
	C364.516937,169.427307 356.023987,162.090836 346.551453,155.269775 
	C342.330200,152.230148 338.175446,149.098175 333.990509,146.008118 
	C342.588928,149.666092 351.472504,152.273117 359.756958,157.175980 
	C366.718597,161.295959 370.928101,167.363571 376.384064,172.516327 
	C377.230011,173.315231 377.483002,175.794281 376.890472,176.891876 
	C373.260071,183.616806 374.114197,190.691269 374.259369,197.875656 
	C374.330170,201.380524 372.413788,204.925537 371.183289,208.740082 
z"/>
<path fill="#2D9ABE" opacity="1.000000" stroke="none" 
	d="
M333.700439,145.827133 
	C338.175446,149.098175 342.330200,152.230148 346.551453,155.269775 
	C356.023987,162.090836 364.516937,169.427307 366.405273,182.073990 
	C367.480560,189.275574 364.586304,194.886322 361.062134,200.921875 
	C360.359100,201.017059 359.855713,200.802429 359.011902,200.178497 
	C358.424377,199.526688 358.177307,199.284149 357.930206,199.041626 
	C357.930206,199.041626 357.949951,199.148132 357.899841,199.168884 
	C354.640594,192.524475 355.451141,185.320755 354.846893,178.278442 
	C354.625610,175.699219 353.417023,172.817871 351.760559,170.818542 
	C345.948151,163.802933 339.818359,157.043442 333.645447,150.337311 
	C331.755707,148.284317 329.238861,146.821793 327.203522,144.884689 
	C325.960510,143.701660 325.087860,142.129501 324.019653,140.370300 
	C327.130402,141.887711 330.270386,143.766937 333.700439,145.827133 
z"/>
<path fill="#274585" opacity="1.000000" stroke="none" 
	d="
M383.639435,242.369614 
	C383.015442,241.760483 382.491913,240.709946 381.874512,239.031708 
	C380.854462,237.620682 379.928314,236.837341 379.002167,236.054001 
	C379.002167,236.054001 378.973114,236.020248 378.937622,235.638733 
	C377.251160,229.817337 375.600189,224.377441 373.949219,218.937561 
	C374.608521,217.780075 375.267822,216.622574 376.035400,215.146606 
	C377.525696,216.462753 378.907715,218.097397 380.548828,219.919983 
	C380.807953,220.107956 380.833069,220.082870 380.901093,220.424042 
	C381.589050,222.009415 382.208984,223.253632 382.828918,224.497833 
	C382.828918,224.497833 382.744751,224.707245 382.815125,225.175201 
	C383.206543,226.277603 383.527588,226.912048 383.848694,227.546494 
	C383.812408,232.340408 383.776154,237.134308 383.639435,242.369614 
z"/>
<path fill="#2DA6BF" opacity="1.000000" stroke="none" 
	d="
M362.307892,155.981796 
	C361.954498,155.795181 361.737244,155.496185 361.547974,155.180435 
	C361.537903,155.163635 361.764130,155.005264 361.880341,154.912796 
	C362.070190,155.230499 362.260040,155.548203 362.307892,155.981796 
z"/>
<path fill="#2D9ABE" opacity="1.000000" stroke="none" 
	d="
M320.907318,135.740784 
	C320.687256,135.531067 320.404968,135.042786 320.057129,134.277115 
	C320.276062,134.487228 320.560608,134.974716 320.907318,135.740784 
z"/>
<path fill="#2B3E9A" opacity="1.000000" stroke="none" 
	d="
M299.120636,220.334198 
	C299.374756,219.903046 299.588043,219.698486 299.954224,219.333694 
	C301.362793,218.354523 302.615875,217.532883 303.989075,216.395020 
	C304.325165,215.866364 304.538879,215.651718 304.908661,215.272354 
	C307.346588,213.677170 309.626221,212.244492 312.041565,210.503662 
	C314.288666,208.977310 316.400024,207.759125 318.757721,206.327637 
	C323.050507,205.789139 327.096985,205.463974 331.673309,205.096207 
	C330.579010,206.436752 329.652588,207.571625 329.558899,207.686356 
	C332.094757,211.810532 333.932251,215.670013 336.572235,218.866776 
	C339.704163,222.659225 343.295593,226.167908 347.125366,229.257217 
	C350.055084,231.620499 350.029480,233.767044 347.466156,235.658478 
	C343.784027,238.375443 339.696106,240.542496 335.424316,242.971313 
	C332.774933,243.647324 330.482605,244.296341 327.822937,245.049377 
	C327.105713,244.128662 326.157074,242.910858 324.642273,240.966263 
	C323.656250,243.028809 322.951294,244.503403 321.965546,246.565338 
	C320.730713,245.420319 319.631409,244.400940 318.237854,242.826477 
	C315.091064,236.110321 312.238525,229.949280 310.078339,225.283615 
	C305.734100,223.609818 302.379486,222.317307 299.024841,221.024796 
	C299.024841,221.024796 299.082397,220.563477 299.120636,220.334198 
M314.749542,223.853271 
	C314.900299,223.962479 315.051086,224.071701 315.201843,224.180908 
	C315.106873,224.021347 315.011902,223.861801 314.749542,223.853271 
z"/>
<path fill="#2A519E" opacity="1.000000" stroke="none" 
	d="
M347.677490,206.139923 
	C349.078430,206.494003 350.139893,206.996185 351.101074,207.741394 
	C346.977051,208.696884 342.953217,209.409332 338.457214,210.062042 
	C337.985046,210.002289 337.858795,209.853683 337.858795,209.853668 
	C341.018524,208.665115 344.178284,207.476562 347.677490,206.139923 
z"/>
<path fill="#2A519E" opacity="1.000000" stroke="none" 
	d="
M338.046021,210.078369 
	C337.842468,210.296082 337.577942,210.437683 337.313416,210.579285 
	C337.394897,210.372864 337.476379,210.166443 337.708313,209.906860 
	C337.858795,209.853683 337.985046,210.002289 338.046021,210.078369 
z"/>
<path fill="#2C47A7" opacity="1.000000" stroke="none" 
	d="
M299.014923,221.015411 
	C302.379486,222.317307 305.734100,223.609818 310.078339,225.283615 
	C312.238525,229.949280 315.091064,236.110321 317.976685,242.634155 
	C308.962677,244.003830 299.915558,245.010712 290.321472,245.751007 
	C285.514313,247.003860 281.254150,248.523315 276.993958,250.042770 
	C275.945343,250.007812 274.896698,249.972855 273.455200,249.913345 
	C272.874023,249.656067 272.670715,249.437302 272.283691,249.085144 
	C271.208344,246.664581 270.301636,244.391357 269.001617,241.132019 
	C271.050415,238.773499 273.173920,235.274857 270.640686,230.692719 
	C270.334686,230.139267 273.096893,227.889572 274.705414,226.225708 
	C279.184082,226.263046 283.394379,226.500702 287.897247,226.516327 
	C290.888184,225.254974 293.586578,224.215652 296.911346,222.983368 
	C298.028290,222.200500 298.518890,221.610611 299.009460,221.020737 
	C299.009460,221.020737 299.005005,221.006042 299.014923,221.015411 
z"/>
<path fill="#3254BB" opacity="1.000000" stroke="none" 
	d="
M277.013245,250.396515 
	C281.254150,248.523315 285.514313,247.003860 289.884033,245.750671 
	C286.142761,248.200333 282.291931,250.383743 278.222839,252.732422 
	C278.004608,252.897690 277.568848,252.896667 277.352997,252.881180 
	C277.102264,252.160538 277.067383,251.455399 277.013245,250.396515 
z"/>
<path fill="#3264BE" opacity="1.000000" stroke="none" 
	d="
M364.229126,234.264938 
	C364.280975,231.555756 365.360504,230.475677 367.462341,232.384644 
	C372.514984,236.973694 377.444519,241.698334 382.590790,246.634644 
	C382.643738,247.472763 382.529602,248.044510 382.246521,248.860596 
	C376.193268,244.246033 370.308960,239.387115 364.229126,234.264938 
z"/>
<path fill="#30ABBA" opacity="1.000000" stroke="none" 
	d="
M382.852112,224.098267 
	C382.208984,223.253632 381.589050,222.009415 380.915131,220.426270 
	C381.532532,221.291107 382.203918,222.494904 382.852112,224.098267 
z"/>
<path fill="#30ABBA" opacity="1.000000" stroke="none" 
	d="
M383.796143,227.191406 
	C383.527588,226.912048 383.206543,226.277603 382.860168,225.278656 
	C383.137787,225.554871 383.440735,226.195587 383.796143,227.191406 
z"/>
<path fill="#2A5093" opacity="1.000000" stroke="none" 
	d="
M373.614044,219.019562 
	C375.600189,224.377441 377.251160,229.817337 378.926208,235.619598 
	C376.433746,234.082428 374.033600,231.996643 371.370270,230.331985 
	C368.267883,228.392929 367.630829,225.903503 368.862549,222.297241 
	C370.372375,220.983093 371.825623,220.042313 373.614044,219.019562 
z"/>
<path fill="#2D9ABE" opacity="1.000000" stroke="none" 
	d="
M362.087097,202.293015 
	C362.834198,202.524307 363.743042,203.020676 364.737427,203.836761 
	C363.964935,203.623672 363.106842,203.090881 362.087097,202.293015 
z"/>
<path fill="#3682BA" opacity="1.000000" stroke="none" 
	d="
M358.017273,199.298340 
	C358.177307,199.284149 358.424377,199.526688 358.809753,199.990845 
	C358.666779,199.993347 358.385559,199.774216 358.017273,199.298340 
z"/>
<path fill="#2D9ABE" opacity="1.000000" stroke="none" 
	d="
M364.997864,204.325653 
	C365.179108,204.323898 365.411133,204.606918 365.763916,205.139526 
	C365.606018,205.129547 365.327362,204.869995 364.997864,204.325653 
z"/>
<path fill="#3474BE" opacity="1.000000" stroke="none" 
	d="
M310.638489,166.044281 
	C311.034210,166.411392 311.264130,166.625229 311.667297,166.998489 
	C312.071899,167.358612 312.289062,167.573685 312.625031,167.989883 
	C314.358704,169.953384 315.959167,171.730331 317.423828,173.897278 
	C303.720825,176.671234 290.753510,174.533630 278.023285,169.555710 
	C274.272919,168.089249 270.057190,167.812851 266.040497,166.531433 
	C265.985565,162.384293 265.944916,158.696762 265.904266,155.009247 
	C265.933563,152.629364 265.962891,150.249466 266.006409,147.422211 
	C272.660950,148.771317 279.390503,150.300949 285.903381,152.478653 
	C289.082886,153.541794 291.806610,155.913239 294.845337,157.482025 
	C295.908417,158.030853 297.296936,157.949326 298.854095,158.022400 
	C299.810944,157.969406 300.450562,158.049637 301.401245,158.210129 
	C304.169312,160.573685 306.626282,162.856964 309.436035,165.221893 
	C310.024658,165.490143 310.252563,165.686035 310.638489,166.044281 
M283.279053,167.981888 
	C286.621124,165.794617 284.910858,163.243347 282.773956,162.393600 
	C281.142212,161.744705 278.644562,163.273331 276.532074,163.833328 
	C276.529358,164.592957 276.526672,165.352585 276.523956,166.112213 
	C278.585907,166.847900 280.647827,167.583572 283.279053,167.981888 
z"/>
<path fill="#000000" opacity="1.000000" stroke="none" 
	d="
M281.668060,133.916809 
	C282.541046,134.521912 283.065552,135.155930 283.890930,135.884781 
	C283.445007,137.795059 282.698212,139.610504 281.724548,141.977417 
	C279.670807,140.054947 278.508484,138.966934 276.872620,137.435638 
	C278.471466,136.180878 279.895538,135.063309 281.668060,133.916809 
z"/>
<path fill="#3264BE" opacity="1.000000" stroke="none" 
	d="
M266.054749,166.991043 
	C270.057190,167.812851 274.272919,168.089249 278.023285,169.555710 
	C290.753510,174.533630 303.720825,176.671234 317.648163,174.136505 
	C321.174011,176.501282 317.721069,178.230225 317.183472,180.624710 
	C312.894592,185.110092 307.874115,185.737076 302.114410,185.296967 
	C296.315491,184.853851 290.423187,185.632858 283.885773,185.873825 
	C281.839478,185.611176 280.479218,185.351089 279.118958,185.091003 
	C276.700043,182.887268 274.281128,180.683548 271.582092,178.224640 
	C270.351685,178.655365 268.561798,179.281937 266.408630,179.472916 
	C266.048492,175.021881 266.051605,171.006470 266.054749,166.991043 
z"/>
<path fill="#3036B6" opacity="1.000000" stroke="none" 
	d="
M283.434052,202.002121 
	C276.577057,199.253998 269.739319,196.940201 267.940918,188.458160 
	C270.585968,188.416260 273.290253,188.731598 276.445496,189.084900 
	C276.896423,189.122879 276.996552,189.162766 277.114227,189.322144 
	C277.404633,189.682617 277.596497,189.863419 278.012299,190.306366 
	C279.469604,191.101303 280.722076,191.613846 281.974548,192.126389 
	C286.155304,193.933685 290.336060,195.740982 294.781769,197.775421 
	C291.309875,199.335083 287.572998,200.667587 283.434052,202.002121 
z"/>
<path fill="#3C87C5" opacity="1.000000" stroke="none" 
	d="
M282.193512,191.878113 
	C280.722076,191.613846 279.469604,191.101303 277.916748,190.129425 
	C277.450317,189.451447 277.243713,189.282333 276.996552,189.162766 
	C276.996552,189.162766 276.896423,189.122879 276.844727,189.103577 
	C276.846680,188.628326 276.900330,188.172394 277.178040,187.236252 
	C277.642120,186.556183 277.842438,186.322327 278.003113,186.054489 
	C278.003113,186.054489 278.043915,186.043869 278.236755,185.894226 
	C278.667786,185.549835 278.864380,185.319565 279.019318,185.053741 
	C279.019318,185.053741 279.064758,185.080032 279.091858,185.085510 
	C280.479218,185.351089 281.839478,185.611176 283.533813,185.965790 
	C283.382751,187.916824 282.897614,189.773331 282.193512,191.878113 
z"/>
<path fill="#2A5093" opacity="1.000000" stroke="none" 
	d="
M379.084167,236.362457 
	C379.928314,236.837341 380.854462,237.620682 381.842590,238.723846 
	C380.991730,238.252762 380.078949,237.461823 379.084167,236.362457 
z"/>
<path fill="#2A519E" opacity="1.000000" stroke="none" 
	d="
M266.040497,166.531433 
	C266.051605,171.006470 266.048492,175.021881 266.059448,179.495361 
	C266.048248,180.129639 266.022980,180.305847 265.746948,180.746368 
	C265.496185,181.010681 265.056976,181.019104 265.056976,181.019104 
	C265.045776,172.672363 265.034576,164.325623 265.056030,155.517181 
	C265.088684,155.055481 265.497070,155.026749 265.700684,155.018005 
	C265.944916,158.696762 265.985565,162.384293 266.040497,166.531433 
z"/>
<path fill="#2B3E9A" opacity="1.000000" stroke="none" 
	d="
M265.017456,181.393524 
	C265.056976,181.019104 265.496185,181.010681 265.715149,181.011505 
	C265.749817,181.849915 265.565552,182.687500 265.173584,183.776993 
	C264.969940,183.275238 264.973938,182.521576 265.017456,181.393524 
z"/>
<path fill="#3264BE" opacity="1.000000" stroke="none" 
	d="
M277.822571,186.198486 
	C277.842438,186.322327 277.642120,186.556183 277.215942,186.894485 
	C277.205902,186.778015 277.410004,186.547867 277.822571,186.198486 
z"/>
<path fill="#3264BE" opacity="1.000000" stroke="none" 
	d="
M278.840973,185.193573 
	C278.864380,185.319565 278.667786,185.549835 278.242157,185.873840 
	C278.231873,185.756775 278.434509,185.533539 278.840973,185.193573 
z"/>
<path fill="#2B3E9A" opacity="1.000000" stroke="none" 
	d="
M298.766052,221.171997 
	C298.518890,221.610611 298.028290,222.200500 297.253448,222.888489 
	C297.487000,222.432159 298.004852,221.877716 298.766052,221.171997 
z"/>
<path fill="#2C47A7" opacity="1.000000" stroke="none" 
	d="
M314.833252,223.777756 
	C315.011902,223.861801 315.106873,224.021347 315.201843,224.180908 
	C315.051086,224.071701 314.900299,223.962479 314.833252,223.777756 
z"/>
<path fill="#3BABB9" opacity="1.000000" stroke="none" 
	d="
M282.994415,168.150574 
	C280.647827,167.583572 278.585907,166.847900 276.523956,166.112213 
	C276.526672,165.352585 276.529358,164.592957 276.532074,163.833328 
	C278.644562,163.273331 281.142212,161.744705 282.773956,162.393600 
	C284.910858,163.243347 286.621124,165.794617 282.994415,168.150574 
z"/>
<path fill="#3254BB" opacity="1.000000" stroke="none" 
	d="
M277.114227,189.322144 
	C277.243713,189.282333 277.450317,189.451447 277.711914,189.847015 
	C277.596497,189.863419 277.404633,189.682617 277.114227,189.322144 
z"/>
</svg>